<mxfile host="Electron" agent="Mozilla/5.0 (Windows NT 10.0; Win64; x64) AppleWebKit/537.36 (KHTML, like Gecko) draw.io/26.0.9 Chrome/128.0.6613.186 Electron/32.2.5 Safari/537.36" version="26.0.9">
  <diagram name="PÃ¡gina-1" id="JkejbjwRbI5Mm3JxXKyr">
    <mxGraphModel dx="4135" dy="1698" grid="0" gridSize="10" guides="1" tooltips="1" connect="1" arrows="1" fold="1" page="0" pageScale="1" pageWidth="827" pageHeight="1169" math="0" shadow="0">
      <root>
        <mxCell id="0" />
        <mxCell id="1" parent="0" />
        <mxCell id="NXJJWlPIzXNzET5rZxup-328" style="edgeStyle=none;curved=1;rounded=0;orthogonalLoop=1;jettySize=auto;html=1;exitX=0.25;exitY=1;exitDx=0;exitDy=0;entryX=0.25;entryY=0;entryDx=0;entryDy=0;fontSize=16;startSize=8;endSize=8;" parent="1" source="NXJJWlPIzXNzET5rZxup-1" target="NXJJWlPIzXNzET5rZxup-317" edge="1">
          <mxGeometry relative="1" as="geometry" />
        </mxCell>
        <mxCell id="NXJJWlPIzXNzET5rZxup-1" value="Get search product by bussiness" style="rounded=1;whiteSpace=wrap;html=1;fillColor=#dae8fc;strokeColor=#66FF66;fontSize=16;" parent="1" vertex="1">
          <mxGeometry x="2160" y="484" width="120" height="60" as="geometry" />
        </mxCell>
        <mxCell id="NXJJWlPIzXNzET5rZxup-264" style="edgeStyle=none;curved=1;rounded=0;orthogonalLoop=1;jettySize=auto;html=1;exitX=0.75;exitY=1;exitDx=0;exitDy=0;fontSize=16;startSize=8;endSize=8;" parent="1" source="NXJJWlPIzXNzET5rZxup-41" target="NXJJWlPIzXNzET5rZxup-91" edge="1">
          <mxGeometry relative="1" as="geometry" />
        </mxCell>
        <mxCell id="NXJJWlPIzXNzET5rZxup-41" value="update password" style="rounded=1;whiteSpace=wrap;html=1;fillColor=#e1d5e7;strokeColor=#66FF66;fontSize=16;" parent="1" vertex="1">
          <mxGeometry x="-1579" y="732" width="120" height="60" as="geometry" />
        </mxCell>
        <mxCell id="NXJJWlPIzXNzET5rZxup-266" style="edgeStyle=none;curved=1;rounded=0;orthogonalLoop=1;jettySize=auto;html=1;exitX=0;exitY=0.75;exitDx=0;exitDy=0;entryX=0.5;entryY=0;entryDx=0;entryDy=0;fontSize=16;startSize=8;endSize=8;" parent="1" source="NXJJWlPIzXNzET5rZxup-42" target="NXJJWlPIzXNzET5rZxup-91" edge="1">
          <mxGeometry relative="1" as="geometry" />
        </mxCell>
        <mxCell id="NXJJWlPIzXNzET5rZxup-42" value="get w password" style="rounded=1;whiteSpace=wrap;html=1;fillColor=#e1d5e7;strokeColor=#66FF66;fontSize=16;" parent="1" vertex="1">
          <mxGeometry x="-1462" y="646" width="120" height="60" as="geometry" />
        </mxCell>
        <mxCell id="NXJJWlPIzXNzET5rZxup-267" style="edgeStyle=none;curved=1;rounded=0;orthogonalLoop=1;jettySize=auto;html=1;exitX=0;exitY=1;exitDx=0;exitDy=0;fontSize=16;startSize=8;endSize=8;" parent="1" source="NXJJWlPIzXNzET5rZxup-43" target="NXJJWlPIzXNzET5rZxup-92" edge="1">
          <mxGeometry relative="1" as="geometry" />
        </mxCell>
        <mxCell id="NXJJWlPIzXNzET5rZxup-43" value="update role" style="rounded=1;whiteSpace=wrap;html=1;fillColor=#e1d5e7;strokeColor=#66FF66;fontSize=16;" parent="1" vertex="1">
          <mxGeometry x="-1236" y="767" width="120" height="60" as="geometry" />
        </mxCell>
        <mxCell id="NXJJWlPIzXNzET5rZxup-268" style="edgeStyle=none;curved=1;rounded=0;orthogonalLoop=1;jettySize=auto;html=1;exitX=0;exitY=1;exitDx=0;exitDy=0;entryX=0.75;entryY=0;entryDx=0;entryDy=0;fontSize=16;startSize=8;endSize=8;" parent="1" source="NXJJWlPIzXNzET5rZxup-44" target="NXJJWlPIzXNzET5rZxup-91" edge="1">
          <mxGeometry relative="1" as="geometry" />
        </mxCell>
        <mxCell id="NXJJWlPIzXNzET5rZxup-44" value="get id by email" style="rounded=1;whiteSpace=wrap;html=1;fillColor=#e1d5e7;strokeColor=#66FF66;fontSize=16;" parent="1" vertex="1">
          <mxGeometry x="-1313" y="666" width="120" height="60" as="geometry" />
        </mxCell>
        <mxCell id="NXJJWlPIzXNzET5rZxup-265" style="edgeStyle=none;curved=1;rounded=0;orthogonalLoop=1;jettySize=auto;html=1;exitX=0;exitY=1;exitDx=0;exitDy=0;entryX=0.5;entryY=0;entryDx=0;entryDy=0;fontSize=16;startSize=8;endSize=8;" parent="1" source="NXJJWlPIzXNzET5rZxup-45" target="NXJJWlPIzXNzET5rZxup-93" edge="1">
          <mxGeometry relative="1" as="geometry" />
        </mxCell>
        <mxCell id="NXJJWlPIzXNzET5rZxup-397" style="edgeStyle=none;curved=1;rounded=0;orthogonalLoop=1;jettySize=auto;html=1;exitX=0.75;exitY=1;exitDx=0;exitDy=0;fontSize=12;startSize=8;endSize=8;" parent="1" source="NXJJWlPIzXNzET5rZxup-45" target="NXJJWlPIzXNzET5rZxup-394" edge="1">
          <mxGeometry relative="1" as="geometry" />
        </mxCell>
        <mxCell id="NXJJWlPIzXNzET5rZxup-45" value="cruds" style="rounded=1;whiteSpace=wrap;html=1;fillColor=#e1d5e7;strokeColor=#66FF66;fontSize=16;" parent="1" vertex="1">
          <mxGeometry x="-1712" y="729" width="120" height="60" as="geometry" />
        </mxCell>
        <mxCell id="NXJJWlPIzXNzET5rZxup-241" style="edgeStyle=none;curved=1;rounded=0;orthogonalLoop=1;jettySize=auto;html=1;exitX=0.5;exitY=1;exitDx=0;exitDy=0;entryX=0.25;entryY=0;entryDx=0;entryDy=0;fontSize=16;startSize=8;endSize=8;" parent="1" source="NXJJWlPIzXNzET5rZxup-46" target="NXJJWlPIzXNzET5rZxup-125" edge="1">
          <mxGeometry relative="1" as="geometry" />
        </mxCell>
        <mxCell id="NXJJWlPIzXNzET5rZxup-46" value="Get newest&amp;nbsp;" style="rounded=1;whiteSpace=wrap;html=1;fillColor=#dae8fc;strokeColor=#66FF66;fontSize=16;" parent="1" vertex="1">
          <mxGeometry x="-933" y="672" width="120" height="60" as="geometry" />
        </mxCell>
        <mxCell id="NXJJWlPIzXNzET5rZxup-331" style="edgeStyle=none;curved=1;rounded=0;orthogonalLoop=1;jettySize=auto;html=1;exitX=0.75;exitY=1;exitDx=0;exitDy=0;entryX=0.75;entryY=0;entryDx=0;entryDy=0;fontSize=16;startSize=8;endSize=8;" parent="1" source="NXJJWlPIzXNzET5rZxup-47" target="NXJJWlPIzXNzET5rZxup-330" edge="1">
          <mxGeometry relative="1" as="geometry" />
        </mxCell>
        <mxCell id="NXJJWlPIzXNzET5rZxup-47" value="bussiness by product (chear, near)" style="rounded=1;whiteSpace=wrap;html=1;fillColor=#dae8fc;strokeColor=#FFD966;fontSize=16;" parent="1" vertex="1">
          <mxGeometry x="2248" y="629" width="120" height="60" as="geometry" />
        </mxCell>
        <mxCell id="NXJJWlPIzXNzET5rZxup-329" style="edgeStyle=none;curved=1;rounded=0;orthogonalLoop=1;jettySize=auto;html=1;exitX=0.25;exitY=1;exitDx=0;exitDy=0;entryX=1;entryY=0.5;entryDx=0;entryDy=0;fontSize=16;startSize=8;endSize=8;" parent="1" source="NXJJWlPIzXNzET5rZxup-49" target="NXJJWlPIzXNzET5rZxup-317" edge="1">
          <mxGeometry relative="1" as="geometry" />
        </mxCell>
        <mxCell id="NXJJWlPIzXNzET5rZxup-50" value="Get nearest limited" style="rounded=1;whiteSpace=wrap;html=1;fillColor=#dae8fc;strokeColor=#66FF66;fontSize=16;" parent="1" vertex="1">
          <mxGeometry x="-412" y="-3" width="120" height="60" as="geometry" />
        </mxCell>
        <mxCell id="NXJJWlPIzXNzET5rZxup-51" value="Get most discount limited" style="rounded=1;whiteSpace=wrap;html=1;fillColor=#dae8fc;strokeColor=#66FF66;fontSize=16;" parent="1" vertex="1">
          <mxGeometry x="-412" y="-63" width="120" height="60" as="geometry" />
        </mxCell>
        <mxCell id="NXJJWlPIzXNzET5rZxup-52" value="Get top by city limited" style="rounded=1;whiteSpace=wrap;html=1;fillColor=#dae8fc;strokeColor=#66FF66;fontSize=16;" parent="1" vertex="1">
          <mxGeometry x="-412" y="-123" width="120" height="60" as="geometry" />
        </mxCell>
        <mxCell id="NXJJWlPIzXNzET5rZxup-53" value="Get popular by city limited" style="rounded=1;whiteSpace=wrap;html=1;fillColor=#dae8fc;strokeColor=#66FF66;fontSize=16;" parent="1" vertex="1">
          <mxGeometry x="-409" y="-246" width="120" height="60" as="geometry" />
        </mxCell>
        <mxCell id="NXJJWlPIzXNzET5rZxup-327" style="edgeStyle=none;curved=1;rounded=0;orthogonalLoop=1;jettySize=auto;html=1;exitX=0.75;exitY=1;exitDx=0;exitDy=0;entryX=0.75;entryY=0;entryDx=0;entryDy=0;fontSize=16;startSize=8;endSize=8;" parent="1" source="NXJJWlPIzXNzET5rZxup-54" target="NXJJWlPIzXNzET5rZxup-315" edge="1">
          <mxGeometry relative="1" as="geometry" />
        </mxCell>
        <mxCell id="NXJJWlPIzXNzET5rZxup-54" value="Get popular by brand" style="rounded=1;whiteSpace=wrap;html=1;fillColor=#dae8fc;strokeColor=#0AFF23;fontSize=16;" parent="1" vertex="1">
          <mxGeometry x="1752" y="392" width="120" height="60" as="geometry" />
        </mxCell>
        <mxCell id="NXJJWlPIzXNzET5rZxup-238" style="edgeStyle=none;curved=1;rounded=0;orthogonalLoop=1;jettySize=auto;html=1;exitX=0.75;exitY=1;exitDx=0;exitDy=0;entryX=0;entryY=0.5;entryDx=0;entryDy=0;fontSize=16;startSize=8;endSize=8;" parent="1" source="NXJJWlPIzXNzET5rZxup-55" target="NXJJWlPIzXNzET5rZxup-125" edge="1">
          <mxGeometry relative="1" as="geometry" />
        </mxCell>
        <mxCell id="NXJJWlPIzXNzET5rZxup-55" value="Get by slug" style="rounded=1;whiteSpace=wrap;html=1;fillColor=#dae8fc;strokeColor=#66FF66;fontSize=16;" parent="1" vertex="1">
          <mxGeometry x="-1018" y="754" width="120" height="60" as="geometry" />
        </mxCell>
        <mxCell id="NXJJWlPIzXNzET5rZxup-217" style="edgeStyle=none;curved=1;rounded=0;orthogonalLoop=1;jettySize=auto;html=1;fontSize=16;startSize=8;endSize=8;" parent="1" source="NXJJWlPIzXNzET5rZxup-56" target="NXJJWlPIzXNzET5rZxup-96" edge="1">
          <mxGeometry relative="1" as="geometry" />
        </mxCell>
        <mxCell id="NXJJWlPIzXNzET5rZxup-56" value="Change status" style="rounded=1;whiteSpace=wrap;html=1;fillColor=#dae8fc;strokeColor=#66FF66;fontSize=16;" parent="1" vertex="1">
          <mxGeometry x="-486" y="666" width="120" height="60" as="geometry" />
        </mxCell>
        <mxCell id="NXJJWlPIzXNzET5rZxup-242" style="edgeStyle=none;curved=1;rounded=0;orthogonalLoop=1;jettySize=auto;html=1;exitX=0.25;exitY=1;exitDx=0;exitDy=0;fontSize=16;startSize=8;endSize=8;entryX=0.5;entryY=0;entryDx=0;entryDy=0;" parent="1" source="NXJJWlPIzXNzET5rZxup-57" target="NXJJWlPIzXNzET5rZxup-97" edge="1">
          <mxGeometry relative="1" as="geometry">
            <mxPoint x="-1018" y="956" as="targetPoint" />
          </mxGeometry>
        </mxCell>
        <mxCell id="NXJJWlPIzXNzET5rZxup-57" value="cruds" style="rounded=1;whiteSpace=wrap;html=1;fillColor=#dae8fc;strokeColor=#66FF66;fontSize=16;" parent="1" vertex="1">
          <mxGeometry x="-1122" y="672" width="120" height="60" as="geometry" />
        </mxCell>
        <mxCell id="NXJJWlPIzXNzET5rZxup-58" value="Get by product id" style="rounded=1;whiteSpace=wrap;html=1;fillColor=#d5e8d4;strokeColor=#66FF66;fontSize=16;" parent="1" vertex="1">
          <mxGeometry x="669" y="41" width="120" height="60" as="geometry" />
        </mxCell>
        <mxCell id="NXJJWlPIzXNzET5rZxup-228" style="edgeStyle=none;curved=1;rounded=0;orthogonalLoop=1;jettySize=auto;html=1;fontSize=16;startSize=8;endSize=8;" parent="1" source="NXJJWlPIzXNzET5rZxup-59" target="NXJJWlPIzXNzET5rZxup-99" edge="1">
          <mxGeometry relative="1" as="geometry" />
        </mxCell>
        <mxCell id="NXJJWlPIzXNzET5rZxup-59" value="Get popular" style="rounded=1;whiteSpace=wrap;html=1;fillColor=#d5e8d4;strokeColor=#66FF66;fontSize=16;" parent="1" vertex="1">
          <mxGeometry x="-412" y="178" width="120" height="60" as="geometry" />
        </mxCell>
        <mxCell id="NXJJWlPIzXNzET5rZxup-60" value="Get by name" style="rounded=1;whiteSpace=wrap;html=1;fillColor=#d5e8d4;strokeColor=#66FF66;fontSize=16;" parent="1" vertex="1">
          <mxGeometry x="669" y="-28" width="120" height="60" as="geometry" />
        </mxCell>
        <mxCell id="NXJJWlPIzXNzET5rZxup-229" style="edgeStyle=none;curved=1;rounded=0;orthogonalLoop=1;jettySize=auto;html=1;fontSize=16;startSize=8;endSize=8;" parent="1" source="NXJJWlPIzXNzET5rZxup-61" target="NXJJWlPIzXNzET5rZxup-101" edge="1">
          <mxGeometry relative="1" as="geometry" />
        </mxCell>
        <mxCell id="NXJJWlPIzXNzET5rZxup-61" value="Change status" style="rounded=1;whiteSpace=wrap;html=1;fillColor=#d5e8d4;strokeColor=#66FF66;fontSize=16;" parent="1" vertex="1">
          <mxGeometry x="-409" y="105" width="120" height="60" as="geometry" />
        </mxCell>
        <mxCell id="NXJJWlPIzXNzET5rZxup-227" style="edgeStyle=none;curved=1;rounded=0;orthogonalLoop=1;jettySize=auto;html=1;fontSize=16;startSize=8;endSize=8;" parent="1" source="NXJJWlPIzXNzET5rZxup-62" target="NXJJWlPIzXNzET5rZxup-102" edge="1">
          <mxGeometry relative="1" as="geometry" />
        </mxCell>
        <mxCell id="NXJJWlPIzXNzET5rZxup-62" value="CRUDs" style="rounded=1;whiteSpace=wrap;html=1;fillColor=#d5e8d4;strokeColor=#66FF66;fontSize=16;" parent="1" vertex="1">
          <mxGeometry x="-407" y="339" width="120" height="60" as="geometry" />
        </mxCell>
        <mxCell id="NXJJWlPIzXNzET5rZxup-271" style="edgeStyle=none;curved=1;rounded=0;orthogonalLoop=1;jettySize=auto;html=1;exitX=0.75;exitY=1;exitDx=0;exitDy=0;entryX=0.75;entryY=0;entryDx=0;entryDy=0;fontSize=16;startSize=8;endSize=8;labelBorderColor=none;" parent="1" source="NXJJWlPIzXNzET5rZxup-63" target="NXJJWlPIzXNzET5rZxup-121" edge="1">
          <mxGeometry relative="1" as="geometry" />
        </mxCell>
        <mxCell id="NXJJWlPIzXNzET5rZxup-63" value="Insert product" style="rounded=1;whiteSpace=wrap;html=1;fillColor=#ffe6cc;strokeColor=#66FF66;fontSize=16;" parent="1" vertex="1">
          <mxGeometry x="1777" y="785" width="118" height="67" as="geometry" />
        </mxCell>
        <mxCell id="NXJJWlPIzXNzET5rZxup-64" value="Get nearest (discard?)" style="rounded=1;whiteSpace=wrap;html=1;fillColor=#f8cecc;strokeColor=#66FF66;fontSize=16;" parent="1" vertex="1">
          <mxGeometry x="673" y="-246" width="120" height="60" as="geometry" />
        </mxCell>
        <mxCell id="NXJJWlPIzXNzET5rZxup-65" value="Get all by discounts" style="rounded=1;whiteSpace=wrap;html=1;fillColor=#f8cecc;strokeColor=#66FF66;fontSize=16;" parent="1" vertex="1">
          <mxGeometry x="671" y="-321" width="120" height="60" as="geometry" />
        </mxCell>
        <mxCell id="NXJJWlPIzXNzET5rZxup-249" style="edgeStyle=none;curved=1;rounded=0;orthogonalLoop=1;jettySize=auto;html=1;exitX=0;exitY=0.75;exitDx=0;exitDy=0;entryX=0.75;entryY=0;entryDx=0;entryDy=0;fontSize=16;startSize=8;endSize=8;" parent="1" source="NXJJWlPIzXNzET5rZxup-66" target="NXJJWlPIzXNzET5rZxup-175" edge="1">
          <mxGeometry relative="1" as="geometry" />
        </mxCell>
        <mxCell id="NXJJWlPIzXNzET5rZxup-66" value="Get by discounts&amp;nbsp;" style="rounded=1;whiteSpace=wrap;html=1;fillColor=#f8cecc;strokeColor=#66FF66;fontSize=16;" parent="1" vertex="1">
          <mxGeometry x="1322" y="612" width="120" height="60" as="geometry" />
        </mxCell>
        <mxCell id="NXJJWlPIzXNzET5rZxup-67" value="Get by filter (discard)" style="rounded=1;whiteSpace=wrap;html=1;fillColor=#f8cecc;strokeColor=#66FF66;fontSize=16;" parent="1" vertex="1">
          <mxGeometry x="673" y="-176" width="120" height="60" as="geometry" />
        </mxCell>
        <mxCell id="NXJJWlPIzXNzET5rZxup-68" value="Get by brand" style="rounded=1;whiteSpace=wrap;html=1;fillColor=#f8cecc;strokeColor=#0AFF23;fontSize=16;" parent="1" vertex="1">
          <mxGeometry x="1759" y="222.99999999999994" width="120" height="60" as="geometry" />
        </mxCell>
        <mxCell id="NXJJWlPIzXNzET5rZxup-339" style="edgeStyle=none;curved=1;rounded=0;orthogonalLoop=1;jettySize=auto;html=1;exitX=0.25;exitY=1;exitDx=0;exitDy=0;fontSize=16;startSize=8;endSize=8;" parent="1" source="NXJJWlPIzXNzET5rZxup-69" target="NXJJWlPIzXNzET5rZxup-334" edge="1">
          <mxGeometry relative="1" as="geometry" />
        </mxCell>
        <mxCell id="NXJJWlPIzXNzET5rZxup-69" value="Get details" style="rounded=1;whiteSpace=wrap;html=1;fillColor=#f8cecc;strokeColor=#66FF66;fontSize=16;" parent="1" vertex="1">
          <mxGeometry x="637" y="789" width="120" height="60" as="geometry" />
        </mxCell>
        <mxCell id="NXJJWlPIzXNzET5rZxup-326" style="edgeStyle=none;curved=1;rounded=0;orthogonalLoop=1;jettySize=auto;html=1;exitX=0;exitY=0.5;exitDx=0;exitDy=0;fontSize=16;startSize=8;endSize=8;" parent="1" source="NXJJWlPIzXNzET5rZxup-49" target="NXJJWlPIzXNzET5rZxup-317" edge="1">
          <mxGeometry relative="1" as="geometry" />
        </mxCell>
        <mxCell id="NXJJWlPIzXNzET5rZxup-70" value="Get newest* by bussiness&amp;nbsp;" style="rounded=1;whiteSpace=wrap;html=1;fillColor=#f8cecc;strokeColor=#0AFF23;fontSize=16;" parent="1" vertex="1">
          <mxGeometry x="1942" y="192" width="120" height="60" as="geometry" />
        </mxCell>
        <mxCell id="NXJJWlPIzXNzET5rZxup-250" style="edgeStyle=none;curved=1;rounded=0;orthogonalLoop=1;jettySize=auto;html=1;exitX=0.5;exitY=1;exitDx=0;exitDy=0;entryX=0.5;entryY=0;entryDx=0;entryDy=0;fontSize=16;startSize=8;endSize=8;" parent="1" source="NXJJWlPIzXNzET5rZxup-71" target="NXJJWlPIzXNzET5rZxup-175" edge="1">
          <mxGeometry relative="1" as="geometry" />
        </mxCell>
        <mxCell id="NXJJWlPIzXNzET5rZxup-71" value="&lt;div&gt;&amp;nbsp;Get top by city&lt;/div&gt;" style="rounded=1;whiteSpace=wrap;html=1;fillColor=#f8cecc;strokeColor=#66FF66;fontSize=16;" parent="1" vertex="1">
          <mxGeometry x="1265" y="700" width="120" height="60" as="geometry" />
        </mxCell>
        <mxCell id="NXJJWlPIzXNzET5rZxup-288" style="edgeStyle=none;curved=1;rounded=0;orthogonalLoop=1;jettySize=auto;html=1;exitX=1;exitY=1;exitDx=0;exitDy=0;entryX=0.5;entryY=0;entryDx=0;entryDy=0;fontSize=16;startSize=8;endSize=8;" parent="1" source="NXJJWlPIzXNzET5rZxup-72" target="NXJJWlPIzXNzET5rZxup-128" edge="1">
          <mxGeometry relative="1" as="geometry" />
        </mxCell>
        <mxCell id="NXJJWlPIzXNzET5rZxup-294" style="edgeStyle=none;curved=1;rounded=0;orthogonalLoop=1;jettySize=auto;html=1;exitX=0.75;exitY=1;exitDx=0;exitDy=0;entryX=1;entryY=0.5;entryDx=0;entryDy=0;fontSize=16;startSize=8;endSize=8;" parent="1" source="NXJJWlPIzXNzET5rZxup-72" target="NXJJWlPIzXNzET5rZxup-129" edge="1">
          <mxGeometry relative="1" as="geometry" />
        </mxCell>
        <mxCell id="NXJJWlPIzXNzET5rZxup-72" value="Get popular by owner" style="rounded=1;whiteSpace=wrap;html=1;fillColor=#f8cecc;strokeColor=#66FF66;fontSize=16;" parent="1" vertex="1">
          <mxGeometry x="2690" y="578" width="120" height="60" as="geometry" />
        </mxCell>
        <mxCell id="NXJJWlPIzXNzET5rZxup-252" style="edgeStyle=none;curved=1;rounded=0;orthogonalLoop=1;jettySize=auto;html=1;exitX=1;exitY=1;exitDx=0;exitDy=0;entryX=0;entryY=0;entryDx=0;entryDy=0;fontSize=16;startSize=8;endSize=8;" parent="1" source="NXJJWlPIzXNzET5rZxup-73" target="NXJJWlPIzXNzET5rZxup-175" edge="1">
          <mxGeometry relative="1" as="geometry" />
        </mxCell>
        <mxCell id="NXJJWlPIzXNzET5rZxup-73" value="Get by slug" style="rounded=1;whiteSpace=wrap;html=1;fillColor=#f8cecc;strokeColor=#66FF66;fontSize=16;" parent="1" vertex="1">
          <mxGeometry x="1147" y="634" width="120" height="60" as="geometry" />
        </mxCell>
        <mxCell id="NXJJWlPIzXNzET5rZxup-253" style="edgeStyle=none;curved=1;rounded=0;orthogonalLoop=1;jettySize=auto;html=1;entryX=0.5;entryY=0;entryDx=0;entryDy=0;fontSize=16;startSize=8;endSize=8;" parent="1" source="NXJJWlPIzXNzET5rZxup-74" target="NXJJWlPIzXNzET5rZxup-109" edge="1">
          <mxGeometry relative="1" as="geometry" />
        </mxCell>
        <mxCell id="NXJJWlPIzXNzET5rZxup-74" value="Change Status" style="rounded=1;whiteSpace=wrap;html=1;fillColor=#f8cecc;strokeColor=#66FF66;fontSize=16;" parent="1" vertex="1">
          <mxGeometry x="939" y="655" width="120" height="60" as="geometry" />
        </mxCell>
        <mxCell id="NXJJWlPIzXNzET5rZxup-247" style="edgeStyle=none;curved=1;rounded=0;orthogonalLoop=1;jettySize=auto;html=1;entryX=0.5;entryY=0;entryDx=0;entryDy=0;fontSize=16;startSize=8;endSize=8;" parent="1" source="NXJJWlPIzXNzET5rZxup-75" target="NXJJWlPIzXNzET5rZxup-110" edge="1">
          <mxGeometry relative="1" as="geometry" />
        </mxCell>
        <mxCell id="NXJJWlPIzXNzET5rZxup-75" value="CRUDs" style="rounded=1;whiteSpace=wrap;html=1;fillColor=#f8cecc;strokeColor=#66FF66;fontSize=16;" parent="1" vertex="1">
          <mxGeometry x="842" y="760" width="120" height="60" as="geometry" />
        </mxCell>
        <mxCell id="NXJJWlPIzXNzET5rZxup-256" style="edgeStyle=none;curved=1;rounded=0;orthogonalLoop=1;jettySize=auto;html=1;exitX=1;exitY=1;exitDx=0;exitDy=0;entryX=0.25;entryY=0;entryDx=0;entryDy=0;fontSize=16;startSize=8;endSize=8;" parent="1" source="NXJJWlPIzXNzET5rZxup-76" target="NXJJWlPIzXNzET5rZxup-170" edge="1">
          <mxGeometry relative="1" as="geometry" />
        </mxCell>
        <mxCell id="NXJJWlPIzXNzET5rZxup-76" value="Get avg by bussiness" style="rounded=1;whiteSpace=wrap;html=1;fillColor=#fff2cc;strokeColor=#66FF66;fontSize=16;" parent="1" vertex="1">
          <mxGeometry x="235" y="702" width="120" height="60" as="geometry" />
        </mxCell>
        <mxCell id="NXJJWlPIzXNzET5rZxup-255" style="edgeStyle=none;curved=1;rounded=0;orthogonalLoop=1;jettySize=auto;html=1;fontSize=16;startSize=8;endSize=8;labelBorderColor=none;" parent="1" source="NXJJWlPIzXNzET5rZxup-77" target="NXJJWlPIzXNzET5rZxup-171" edge="1">
          <mxGeometry relative="1" as="geometry" />
        </mxCell>
        <mxCell id="NXJJWlPIzXNzET5rZxup-77" value="Get by bussiness" style="rounded=1;whiteSpace=wrap;html=1;fillColor=#fff2cc;strokeColor=#66FF66;fontSize=16;" parent="1" vertex="1">
          <mxGeometry x="208" y="773" width="120" height="60" as="geometry" />
        </mxCell>
        <mxCell id="NXJJWlPIzXNzET5rZxup-258" style="edgeStyle=none;curved=1;rounded=0;orthogonalLoop=1;jettySize=auto;html=1;exitX=1;exitY=1;exitDx=0;exitDy=0;entryX=0.5;entryY=0;entryDx=0;entryDy=0;fontSize=16;startSize=8;endSize=8;" parent="1" source="NXJJWlPIzXNzET5rZxup-78" target="NXJJWlPIzXNzET5rZxup-113" edge="1">
          <mxGeometry relative="1" as="geometry" />
        </mxCell>
        <mxCell id="NXJJWlPIzXNzET5rZxup-78" value="CRUDs" style="rounded=1;whiteSpace=wrap;html=1;fillColor=#fff2cc;strokeColor=#66FF66;fontSize=16;" parent="1" vertex="1">
          <mxGeometry x="373" y="694" width="120" height="60" as="geometry" />
        </mxCell>
        <mxCell id="NXJJWlPIzXNzET5rZxup-205" style="edgeStyle=none;curved=1;rounded=0;orthogonalLoop=1;jettySize=auto;html=1;entryX=1;entryY=0.5;entryDx=0;entryDy=0;fontSize=16;startSize=8;endSize=8;" parent="1" source="NXJJWlPIzXNzET5rZxup-79" target="NXJJWlPIzXNzET5rZxup-90" edge="1">
          <mxGeometry relative="1" as="geometry" />
        </mxCell>
        <mxCell id="NXJJWlPIzXNzET5rZxup-79" value="Get by user" style="rounded=1;whiteSpace=wrap;html=1;fillColor=#ffe6cc;strokeColor=#66FF66;fontSize=16;" parent="1" vertex="1">
          <mxGeometry x="-350" y="762" width="120" height="60" as="geometry" />
        </mxCell>
        <mxCell id="NXJJWlPIzXNzET5rZxup-270" style="edgeStyle=none;curved=1;rounded=0;orthogonalLoop=1;jettySize=auto;html=1;exitX=0.75;exitY=1;exitDx=0;exitDy=0;fontSize=16;startSize=8;endSize=8;" parent="1" source="NXJJWlPIzXNzET5rZxup-81" target="NXJJWlPIzXNzET5rZxup-120" edge="1">
          <mxGeometry relative="1" as="geometry" />
        </mxCell>
        <mxCell id="NXJJWlPIzXNzET5rZxup-81" value="CRD" style="rounded=1;whiteSpace=wrap;html=1;fillColor=#ffe6cc;strokeColor=#66FF66;fontSize=16;" parent="1" vertex="1">
          <mxGeometry x="1588" y="709" width="120" height="60" as="geometry" />
        </mxCell>
        <mxCell id="NXJJWlPIzXNzET5rZxup-272" style="edgeStyle=none;curved=1;rounded=0;orthogonalLoop=1;jettySize=auto;html=1;exitX=0;exitY=1;exitDx=0;exitDy=0;fontSize=16;startSize=8;endSize=8;" parent="1" source="NXJJWlPIzXNzET5rZxup-82" target="NXJJWlPIzXNzET5rZxup-116" edge="1">
          <mxGeometry relative="1" as="geometry" />
        </mxCell>
        <mxCell id="NXJJWlPIzXNzET5rZxup-82" value="Remove product" style="rounded=1;whiteSpace=wrap;html=1;fillColor=#ffe6cc;strokeColor=#66FF66;fontSize=16;" parent="1" vertex="1">
          <mxGeometry x="1579" y="634" width="120" height="60" as="geometry" />
        </mxCell>
        <mxCell id="NXJJWlPIzXNzET5rZxup-83" value="Get by business" style="rounded=1;whiteSpace=wrap;html=1;fillColor=#f5f5f5;strokeColor=#66FF66;fontSize=16;fontColor=#333333;" parent="1" vertex="1">
          <mxGeometry x="-48" y="765" width="120" height="60" as="geometry" />
        </mxCell>
        <mxCell id="NXJJWlPIzXNzET5rZxup-215" style="edgeStyle=none;curved=1;rounded=0;orthogonalLoop=1;jettySize=auto;html=1;fontSize=16;startSize=8;endSize=8;" parent="1" source="NXJJWlPIzXNzET5rZxup-84" target="NXJJWlPIzXNzET5rZxup-115" edge="1">
          <mxGeometry relative="1" as="geometry" />
        </mxCell>
        <mxCell id="NXJJWlPIzXNzET5rZxup-84" value="CRUDs" style="rounded=1;whiteSpace=wrap;html=1;fillColor=#f5f5f5;strokeColor=#66FF66;fontSize=16;fontColor=#333333;" parent="1" vertex="1">
          <mxGeometry x="-214" y="760" width="120" height="60" as="geometry" />
        </mxCell>
        <mxCell id="NXJJWlPIzXNzET5rZxup-85" value="" style="endArrow=none;dashed=1;html=1;rounded=0;fontSize=16;startSize=8;endSize=8;curved=1;labelBorderColor=none;" parent="1" edge="1">
          <mxGeometry width="50" height="50" relative="1" as="geometry">
            <mxPoint x="-1881" y="860" as="sourcePoint" />
            <mxPoint x="2776" y="871" as="targetPoint" />
          </mxGeometry>
        </mxCell>
        <mxCell id="NXJJWlPIzXNzET5rZxup-216" value="Text" style="edgeLabel;html=1;align=center;verticalAlign=middle;resizable=0;points=[];fontSize=16;labelBorderColor=none;" parent="NXJJWlPIzXNzET5rZxup-85" vertex="1" connectable="0">
          <mxGeometry x="0.9777" y="-4" relative="1" as="geometry">
            <mxPoint as="offset" />
          </mxGeometry>
        </mxCell>
        <mxCell id="NXJJWlPIzXNzET5rZxup-400" style="edgeStyle=none;curved=1;rounded=0;orthogonalLoop=1;jettySize=auto;html=1;exitX=0;exitY=1;exitDx=0;exitDy=0;fontSize=12;startSize=8;endSize=8;" parent="1" source="NXJJWlPIzXNzET5rZxup-89" target="NXJJWlPIzXNzET5rZxup-398" edge="1">
          <mxGeometry relative="1" as="geometry" />
        </mxCell>
        <mxCell id="NXJJWlPIzXNzET5rZxup-89" value="get ratings" style="rounded=1;whiteSpace=wrap;html=1;fillColor=#e1d5e7;strokeColor=#66FF66;fontSize=16;labelBorderColor=none;" parent="1" vertex="1">
          <mxGeometry x="-673" y="1315" width="120" height="60" as="geometry" />
        </mxCell>
        <mxCell id="NXJJWlPIzXNzET5rZxup-401" style="edgeStyle=none;curved=1;rounded=0;orthogonalLoop=1;jettySize=auto;html=1;exitX=0.25;exitY=1;exitDx=0;exitDy=0;entryX=1;entryY=0.25;entryDx=0;entryDy=0;fontSize=12;startSize=8;endSize=8;" parent="1" source="NXJJWlPIzXNzET5rZxup-90" target="NXJJWlPIzXNzET5rZxup-398" edge="1">
          <mxGeometry relative="1" as="geometry" />
        </mxCell>
        <mxCell id="NXJJWlPIzXNzET5rZxup-90" value="get list" style="rounded=1;whiteSpace=wrap;html=1;fillColor=#e1d5e7;strokeColor=#66FF66;fontSize=16;labelBorderColor=none;" parent="1" vertex="1">
          <mxGeometry x="-492" y="1315" width="120" height="60" as="geometry" />
        </mxCell>
        <mxCell id="NXJJWlPIzXNzET5rZxup-365" style="edgeStyle=none;curved=1;rounded=0;orthogonalLoop=1;jettySize=auto;html=1;exitX=0.75;exitY=1;exitDx=0;exitDy=0;fontSize=16;startSize=8;endSize=8;" parent="1" source="NXJJWlPIzXNzET5rZxup-91" target="NXJJWlPIzXNzET5rZxup-363" edge="1">
          <mxGeometry relative="1" as="geometry" />
        </mxCell>
        <mxCell id="NXJJWlPIzXNzET5rZxup-91" value="edit profile" style="rounded=1;whiteSpace=wrap;html=1;fillColor=#e1d5e7;strokeColor=#66FF66;fontSize=16;labelBorderColor=none;" parent="1" vertex="1">
          <mxGeometry x="-1429" y="944" width="120" height="60" as="geometry" />
        </mxCell>
        <mxCell id="NXJJWlPIzXNzET5rZxup-92" value="become owner" style="rounded=1;whiteSpace=wrap;html=1;fillColor=#e1d5e7;strokeColor=#66FF66;fontSize=16;labelBorderColor=none;" parent="1" vertex="1">
          <mxGeometry x="-1283" y="944" width="120" height="60" as="geometry" />
        </mxCell>
        <mxCell id="NXJJWlPIzXNzET5rZxup-93" value="CRUDs" style="rounded=1;whiteSpace=wrap;html=1;fillColor=#e1d5e7;strokeColor=#66FF66;fontSize=16;labelBorderColor=none;" parent="1" vertex="1">
          <mxGeometry x="-1571" y="948" width="120" height="60" as="geometry" />
        </mxCell>
        <mxCell id="NXJJWlPIzXNzET5rZxup-94" value="find by&amp;nbsp; product filter" style="rounded=1;whiteSpace=wrap;html=1;fillColor=#dae8fc;strokeColor=#66FF66;fontSize=16;labelBorderColor=none;" parent="1" vertex="1">
          <mxGeometry x="-2181" y="1490" width="120" height="60" as="geometry" />
        </mxCell>
        <mxCell id="NXJJWlPIzXNzET5rZxup-95" value="create form" style="rounded=1;whiteSpace=wrap;html=1;fillColor=#dae8fc;strokeColor=#66FF66;fontSize=16;labelBorderColor=none;" parent="1" vertex="1">
          <mxGeometry x="-1566" y="1390" width="120" height="60" as="geometry" />
        </mxCell>
        <mxCell id="NXJJWlPIzXNzET5rZxup-404" style="edgeStyle=none;curved=1;rounded=0;orthogonalLoop=1;jettySize=auto;html=1;exitX=0.75;exitY=1;exitDx=0;exitDy=0;entryX=1;entryY=1;entryDx=0;entryDy=0;fontSize=12;startSize=8;endSize=8;" parent="1" source="NXJJWlPIzXNzET5rZxup-96" target="NXJJWlPIzXNzET5rZxup-350" edge="1">
          <mxGeometry relative="1" as="geometry" />
        </mxCell>
        <mxCell id="NXJJWlPIzXNzET5rZxup-96" value="Edit status" style="rounded=1;whiteSpace=wrap;html=1;fillColor=#dae8fc;strokeColor=#66FF66;fontSize=16;labelBorderColor=none;" parent="1" vertex="1">
          <mxGeometry x="-492" y="986" width="120" height="60" as="geometry" />
        </mxCell>
        <mxCell id="NXJJWlPIzXNzET5rZxup-97" value="CRUDs" style="rounded=1;whiteSpace=wrap;html=1;fillColor=#dae8fc;strokeColor=#66FF66;fontSize=16;labelBorderColor=none;" parent="1" vertex="1">
          <mxGeometry x="-1091" y="1226" width="120" height="60" as="geometry" />
        </mxCell>
        <mxCell id="NXJJWlPIzXNzET5rZxup-98" value="f&lt;span style=&quot;background-color: initial;&quot;&gt;ind by product filter&lt;/span&gt;&lt;div&gt;&lt;span style=&quot;background-color: initial;&quot;&gt;&lt;br&gt;&lt;/span&gt;&lt;/div&gt;" style="rounded=1;whiteSpace=wrap;html=1;fillColor=#d5e8d4;strokeColor=#66FF66;fontSize=16;labelBorderColor=none;" parent="1" vertex="1">
          <mxGeometry x="-2178" y="1394" width="120" height="60" as="geometry" />
        </mxCell>
        <mxCell id="NXJJWlPIzXNzET5rZxup-99" value="popular bussiness" style="rounded=1;whiteSpace=wrap;html=1;fillColor=#d5e8d4;strokeColor=#66FF66;fontSize=16;labelBorderColor=none;" parent="1" vertex="1">
          <mxGeometry x="41" y="1064" width="120" height="60" as="geometry" />
        </mxCell>
        <mxCell id="NXJJWlPIzXNzET5rZxup-403" style="edgeStyle=none;curved=1;rounded=0;orthogonalLoop=1;jettySize=auto;html=1;exitX=0.75;exitY=1;exitDx=0;exitDy=0;entryX=1;entryY=0.5;entryDx=0;entryDy=0;fontSize=12;startSize=8;endSize=8;" parent="1" source="NXJJWlPIzXNzET5rZxup-101" target="NXJJWlPIzXNzET5rZxup-350" edge="1">
          <mxGeometry relative="1" as="geometry" />
        </mxCell>
        <mxCell id="NXJJWlPIzXNzET5rZxup-101" value="edit status" style="rounded=1;whiteSpace=wrap;html=1;fillColor=#d5e8d4;strokeColor=#66FF66;fontSize=16;labelBorderColor=none;" parent="1" vertex="1">
          <mxGeometry x="-116" y="1176" width="120" height="60" as="geometry" />
        </mxCell>
        <mxCell id="NXJJWlPIzXNzET5rZxup-102" value="CRUDs" style="rounded=1;whiteSpace=wrap;html=1;fillColor=#d5e8d4;strokeColor=#66FF66;fontSize=16;labelBorderColor=none;" parent="1" vertex="1">
          <mxGeometry x="-230" y="1259" width="120" height="60" as="geometry" />
        </mxCell>
        <mxCell id="NXJJWlPIzXNzET5rZxup-107" value="&amp;nbsp;find discount&amp;nbsp;" style="rounded=1;whiteSpace=wrap;html=1;fillColor=#f8cecc;strokeColor=#66FF66;fontSize=16;labelBorderColor=none;" parent="1" vertex="1">
          <mxGeometry x="-2319" y="1244" width="120" height="60" as="geometry" />
        </mxCell>
        <mxCell id="NXJJWlPIzXNzET5rZxup-405" style="edgeStyle=none;curved=1;rounded=0;orthogonalLoop=1;jettySize=auto;html=1;exitX=0.25;exitY=1;exitDx=0;exitDy=0;entryX=0.5;entryY=1;entryDx=0;entryDy=0;fontSize=12;startSize=8;endSize=8;" parent="1" source="NXJJWlPIzXNzET5rZxup-109" target="NXJJWlPIzXNzET5rZxup-350" edge="1">
          <mxGeometry relative="1" as="geometry" />
        </mxCell>
        <mxCell id="NXJJWlPIzXNzET5rZxup-109" value="edit status" style="rounded=1;whiteSpace=wrap;html=1;fillColor=#f8cecc;strokeColor=#66FF66;fontSize=16;labelBorderColor=none;" parent="1" vertex="1">
          <mxGeometry x="859" y="989" width="120" height="60" as="geometry" />
        </mxCell>
        <mxCell id="NXJJWlPIzXNzET5rZxup-110" value="CRUDs" style="rounded=1;whiteSpace=wrap;html=1;fillColor=#f8cecc;strokeColor=#66FF66;fontSize=16;labelBorderColor=none;" parent="1" vertex="1">
          <mxGeometry x="297" y="1453" width="120" height="60" as="geometry" />
        </mxCell>
        <mxCell id="NXJJWlPIzXNzET5rZxup-111" value="find by bussiness" style="rounded=1;whiteSpace=wrap;html=1;fillColor=#f5f5f5;strokeColor=#66FF66;fontColor=#333333;fontSize=16;labelBorderColor=none;" parent="1" vertex="1">
          <mxGeometry x="-230" y="1031" width="120" height="60" as="geometry" />
        </mxCell>
        <mxCell id="NXJJWlPIzXNzET5rZxup-113" value="CRUD" style="rounded=1;whiteSpace=wrap;html=1;fillColor=#fff2cc;strokeColor=#66FF66;fontSize=16;labelBorderColor=none;" parent="1" vertex="1">
          <mxGeometry x="471" y="1004" width="120" height="60" as="geometry" />
        </mxCell>
        <mxCell id="NXJJWlPIzXNzET5rZxup-115" value="CRUDs" style="rounded=1;whiteSpace=wrap;html=1;fillColor=#f5f5f5;strokeColor=#66FF66;fontColor=#333333;fontSize=16;labelBorderColor=none;" parent="1" vertex="1">
          <mxGeometry x="-334" y="1106" width="120" height="60" as="geometry" />
        </mxCell>
        <mxCell id="QpYXfKqDC9RKlLKm9F4h-5" style="edgeStyle=none;curved=1;rounded=0;orthogonalLoop=1;jettySize=auto;html=1;exitX=0;exitY=1;exitDx=0;exitDy=0;entryX=1;entryY=0.5;entryDx=0;entryDy=0;fontSize=12;startSize=8;endSize=8;" parent="1" source="NXJJWlPIzXNzET5rZxup-116" target="NXJJWlPIzXNzET5rZxup-398" edge="1">
          <mxGeometry relative="1" as="geometry" />
        </mxCell>
        <mxCell id="NXJJWlPIzXNzET5rZxup-116" value="remove prod" style="rounded=1;whiteSpace=wrap;html=1;fillColor=#ffe6cc;strokeColor=#66FF66;fontSize=16;labelBorderColor=none;" parent="1" vertex="1">
          <mxGeometry x="1504" y="902" width="120" height="60" as="geometry" />
        </mxCell>
        <mxCell id="NXJJWlPIzXNzET5rZxup-120" value="CRUD" style="rounded=1;whiteSpace=wrap;html=1;fillColor=#ffe6cc;strokeColor=#66FF66;fontSize=16;labelBorderColor=none;" parent="1" vertex="1">
          <mxGeometry x="1569" y="1019" width="120" height="60" as="geometry" />
        </mxCell>
        <mxCell id="QpYXfKqDC9RKlLKm9F4h-6" style="edgeStyle=none;curved=1;rounded=0;orthogonalLoop=1;jettySize=auto;html=1;exitX=0;exitY=1;exitDx=0;exitDy=0;entryX=1;entryY=1;entryDx=0;entryDy=0;fontSize=12;startSize=8;endSize=8;" parent="1" source="NXJJWlPIzXNzET5rZxup-121" target="NXJJWlPIzXNzET5rZxup-398" edge="1">
          <mxGeometry relative="1" as="geometry" />
        </mxCell>
        <mxCell id="NXJJWlPIzXNzET5rZxup-121" value="add prod" style="rounded=1;whiteSpace=wrap;html=1;fillColor=#ffe6cc;strokeColor=#66FF66;fontSize=16;labelBorderColor=none;" parent="1" vertex="1">
          <mxGeometry x="1761" y="926" width="120" height="60" as="geometry" />
        </mxCell>
        <mxCell id="NXJJWlPIzXNzET5rZxup-122" value="&amp;nbsp;find by user" style="rounded=1;whiteSpace=wrap;html=1;fillColor=#ffe6cc;strokeColor=#66FF66;fontSize=16;labelBorderColor=none;" parent="1" vertex="1">
          <mxGeometry x="-2323" y="1329" width="120" height="60" as="geometry" />
        </mxCell>
        <mxCell id="NXJJWlPIzXNzET5rZxup-343" style="edgeStyle=none;curved=1;rounded=0;orthogonalLoop=1;jettySize=auto;html=1;exitX=1;exitY=1;exitDx=0;exitDy=0;entryX=0.5;entryY=0;entryDx=0;entryDy=0;fontSize=16;startSize=8;endSize=8;" parent="1" source="NXJJWlPIzXNzET5rZxup-123" target="NXJJWlPIzXNzET5rZxup-188" edge="1">
          <mxGeometry relative="1" as="geometry" />
        </mxCell>
        <mxCell id="NXJJWlPIzXNzET5rZxup-123" value="main" style="rounded=1;whiteSpace=wrap;html=1;fontSize=16;labelBorderColor=none;strokeColor=#66FF66;" parent="1" vertex="1">
          <mxGeometry x="58" y="907" width="120" height="60" as="geometry" />
        </mxCell>
        <mxCell id="NXJJWlPIzXNzET5rZxup-361" style="edgeStyle=none;curved=1;rounded=0;orthogonalLoop=1;jettySize=auto;html=1;exitX=0;exitY=1;exitDx=0;exitDy=0;entryX=0.5;entryY=0;entryDx=0;entryDy=0;fontSize=16;startSize=8;endSize=8;" parent="1" source="NXJJWlPIzXNzET5rZxup-124" target="NXJJWlPIzXNzET5rZxup-348" edge="1">
          <mxGeometry relative="1" as="geometry" />
        </mxCell>
        <mxCell id="NXJJWlPIzXNzET5rZxup-124" value="general" style="rounded=1;whiteSpace=wrap;html=1;fillColor=#b0e3e6;strokeColor=#66FF66;fontSize=16;labelBorderColor=none;" parent="1" vertex="1">
          <mxGeometry x="1191" y="1031" width="120" height="60" as="geometry" />
        </mxCell>
        <mxCell id="NXJJWlPIzXNzET5rZxup-359" style="edgeStyle=none;curved=1;rounded=0;orthogonalLoop=1;jettySize=auto;html=1;exitX=0.75;exitY=1;exitDx=0;exitDy=0;fontSize=16;startSize=8;endSize=8;" parent="1" source="NXJJWlPIzXNzET5rZxup-125" target="NXJJWlPIzXNzET5rZxup-348" edge="1">
          <mxGeometry relative="1" as="geometry" />
        </mxCell>
        <mxCell id="NXJJWlPIzXNzET5rZxup-125" value="by bussiness" style="rounded=1;whiteSpace=wrap;html=1;fillColor=#b0e3e6;strokeColor=#66FF66;fontSize=16;labelBorderColor=none;" parent="1" vertex="1">
          <mxGeometry x="-901" y="904" width="120" height="60" as="geometry" />
        </mxCell>
        <mxCell id="NXJJWlPIzXNzET5rZxup-127" value="&lt;div&gt;find by stocks by slug&lt;/div&gt;&lt;div&gt;&lt;br&gt;&lt;/div&gt;" style="rounded=1;whiteSpace=wrap;html=1;fillColor=#d0cee2;strokeColor=#66FF66;fontSize=16;labelBorderColor=none;" parent="1" vertex="1">
          <mxGeometry x="-2367" y="1529" width="120" height="60" as="geometry" />
        </mxCell>
        <mxCell id="NXJJWlPIzXNzET5rZxup-128" value="search&lt;div&gt;&amp;nbsp;(all)&lt;/div&gt;" style="rounded=1;whiteSpace=wrap;html=1;fillColor=#d0cee2;strokeColor=#66FF66;fontSize=16;labelBorderColor=none;" parent="1" vertex="1">
          <mxGeometry x="2522" y="1113" width="120" height="60" as="geometry" />
        </mxCell>
        <mxCell id="NXJJWlPIzXNzET5rZxup-344" style="edgeStyle=none;curved=1;rounded=0;orthogonalLoop=1;jettySize=auto;html=1;exitX=0.5;exitY=1;exitDx=0;exitDy=0;fontSize=16;startSize=8;endSize=8;" parent="1" source="NXJJWlPIzXNzET5rZxup-129" target="NXJJWlPIzXNzET5rZxup-187" edge="1">
          <mxGeometry relative="1" as="geometry" />
        </mxCell>
        <mxCell id="NXJJWlPIzXNzET5rZxup-129" value="main" style="rounded=1;whiteSpace=wrap;html=1;fillColor=#d0cee2;strokeColor=#66FF66;fontSize=16;labelBorderColor=none;" parent="1" vertex="1">
          <mxGeometry x="2181" y="959" width="120" height="60" as="geometry" />
        </mxCell>
        <mxCell id="NXJJWlPIzXNzET5rZxup-243" style="edgeStyle=none;curved=1;rounded=0;orthogonalLoop=1;jettySize=auto;html=1;exitX=0;exitY=1;exitDx=0;exitDy=0;entryX=1;entryY=0.25;entryDx=0;entryDy=0;fontSize=16;startSize=8;endSize=8;" parent="1" source="NXJJWlPIzXNzET5rZxup-130" target="NXJJWlPIzXNzET5rZxup-125" edge="1">
          <mxGeometry relative="1" as="geometry" />
        </mxCell>
        <mxCell id="NXJJWlPIzXNzET5rZxup-130" value="Get top by city" style="rounded=1;whiteSpace=wrap;html=1;fillColor=#dae8fc;strokeColor=#66FF66;fontSize=16;" parent="1" vertex="1">
          <mxGeometry x="-642" y="669" width="120" height="60" as="geometry" />
        </mxCell>
        <mxCell id="NXJJWlPIzXNzET5rZxup-240" style="edgeStyle=none;curved=1;rounded=0;orthogonalLoop=1;jettySize=auto;html=1;exitX=0.75;exitY=1;exitDx=0;exitDy=0;entryX=1;entryY=0.75;entryDx=0;entryDy=0;fontSize=16;startSize=8;endSize=8;" parent="1" source="NXJJWlPIzXNzET5rZxup-131" target="NXJJWlPIzXNzET5rZxup-125" edge="1">
          <mxGeometry relative="1" as="geometry" />
        </mxCell>
        <mxCell id="NXJJWlPIzXNzET5rZxup-131" value="Get most discount" style="rounded=1;whiteSpace=wrap;html=1;fillColor=#dae8fc;strokeColor=#66FF66;fontSize=16;" parent="1" vertex="1">
          <mxGeometry x="-784" y="666" width="120" height="60" as="geometry" />
        </mxCell>
        <mxCell id="NXJJWlPIzXNzET5rZxup-239" style="edgeStyle=none;curved=1;rounded=0;orthogonalLoop=1;jettySize=auto;html=1;exitX=0.75;exitY=1;exitDx=0;exitDy=0;entryX=0.75;entryY=0;entryDx=0;entryDy=0;fontSize=16;startSize=8;endSize=8;" parent="1" source="NXJJWlPIzXNzET5rZxup-132" target="NXJJWlPIzXNzET5rZxup-125" edge="1">
          <mxGeometry relative="1" as="geometry" />
        </mxCell>
        <mxCell id="NXJJWlPIzXNzET5rZxup-132" value="Get nearest" style="rounded=1;whiteSpace=wrap;html=1;fillColor=#dae8fc;strokeColor=#66FF66;fontSize=16;" parent="1" vertex="1">
          <mxGeometry x="-863" y="749" width="120" height="60" as="geometry" />
        </mxCell>
        <mxCell id="NXJJWlPIzXNzET5rZxup-269" style="edgeStyle=none;curved=1;rounded=0;orthogonalLoop=1;jettySize=auto;html=1;exitX=0;exitY=1;exitDx=0;exitDy=0;entryX=1;entryY=0.75;entryDx=0;entryDy=0;fontSize=16;startSize=8;endSize=8;" parent="1" source="NXJJWlPIzXNzET5rZxup-133" target="NXJJWlPIzXNzET5rZxup-125" edge="1">
          <mxGeometry relative="1" as="geometry" />
        </mxCell>
        <mxCell id="NXJJWlPIzXNzET5rZxup-133" value="Get popular by city" style="rounded=1;whiteSpace=wrap;html=1;fillColor=#dae8fc;strokeColor=#66FF66;fontSize=16;" parent="1" vertex="1">
          <mxGeometry x="-642" y="765" width="120" height="60" as="geometry" />
        </mxCell>
        <mxCell id="NXJJWlPIzXNzET5rZxup-321" style="edgeStyle=none;curved=1;rounded=0;orthogonalLoop=1;jettySize=auto;html=1;entryX=0.25;entryY=0;entryDx=0;entryDy=0;fontSize=16;startSize=8;endSize=8;" parent="1" source="NXJJWlPIzXNzET5rZxup-136" target="NXJJWlPIzXNzET5rZxup-315" edge="1">
          <mxGeometry relative="1" as="geometry" />
        </mxCell>
        <mxCell id="NXJJWlPIzXNzET5rZxup-136" value="Get newest by nebrand" style="rounded=1;whiteSpace=wrap;html=1;fillColor=#f8cecc;strokeColor=#0AFF23;fontSize=16;" parent="1" vertex="1">
          <mxGeometry x="1755" y="155" width="120" height="60" as="geometry" />
        </mxCell>
        <mxCell id="NXJJWlPIzXNzET5rZxup-137" value="Get newest limited" style="rounded=1;whiteSpace=wrap;html=1;fillColor=#f8cecc;strokeColor=#66FF66;fontSize=16;" parent="1" vertex="1">
          <mxGeometry x="-130" y="-202" width="120" height="60" as="geometry" />
        </mxCell>
        <mxCell id="NXJJWlPIzXNzET5rZxup-248" style="edgeStyle=none;curved=1;rounded=0;orthogonalLoop=1;jettySize=auto;html=1;exitX=0;exitY=1;exitDx=0;exitDy=0;entryX=1;entryY=0.5;entryDx=0;entryDy=0;fontSize=16;startSize=8;endSize=8;" parent="1" source="NXJJWlPIzXNzET5rZxup-138" target="NXJJWlPIzXNzET5rZxup-175" edge="1">
          <mxGeometry relative="1" as="geometry" />
        </mxCell>
        <mxCell id="NXJJWlPIzXNzET5rZxup-138" value="Get newest" style="rounded=1;whiteSpace=wrap;html=1;fillColor=#f8cecc;strokeColor=#66FF66;fontSize=16;" parent="1" vertex="1">
          <mxGeometry x="1377" y="762" width="120" height="60" as="geometry" />
        </mxCell>
        <mxCell id="NXJJWlPIzXNzET5rZxup-139" value="&lt;div&gt;&amp;nbsp;Get top by city&amp;nbsp; limited&amp;nbsp;&lt;/div&gt;" style="rounded=1;whiteSpace=wrap;html=1;fillColor=#f8cecc;strokeColor=#66FF66;fontSize=16;" parent="1" vertex="1">
          <mxGeometry x="-136" y="-287" width="120" height="60" as="geometry" />
        </mxCell>
        <mxCell id="NXJJWlPIzXNzET5rZxup-318" style="edgeStyle=none;curved=1;rounded=0;orthogonalLoop=1;jettySize=auto;html=1;entryX=0;entryY=0.5;entryDx=0;entryDy=0;fontSize=16;startSize=8;endSize=8;" parent="1" source="NXJJWlPIzXNzET5rZxup-141" target="NXJJWlPIzXNzET5rZxup-315" edge="1">
          <mxGeometry relative="1" as="geometry" />
        </mxCell>
        <mxCell id="NXJJWlPIzXNzET5rZxup-141" value="&lt;div&gt;&amp;nbsp;Get top by brand&lt;/div&gt;&lt;div&gt;&lt;br&gt;&lt;/div&gt;" style="rounded=1;whiteSpace=wrap;html=1;fillColor=#f8cecc;strokeColor=#0AFF23;fontSize=16;" parent="1" vertex="1">
          <mxGeometry x="1759" y="296.33000000000004" width="120" height="60" as="geometry" />
        </mxCell>
        <mxCell id="NXJJWlPIzXNzET5rZxup-287" style="edgeStyle=none;curved=1;rounded=0;orthogonalLoop=1;jettySize=auto;html=1;exitX=0;exitY=0.75;exitDx=0;exitDy=0;entryX=0.75;entryY=0;entryDx=0;entryDy=0;fontSize=16;startSize=8;endSize=8;" parent="1" source="NXJJWlPIzXNzET5rZxup-142" target="NXJJWlPIzXNzET5rZxup-128" edge="1">
          <mxGeometry relative="1" as="geometry" />
        </mxCell>
        <mxCell id="NXJJWlPIzXNzET5rZxup-142" value="&lt;div&gt;&amp;nbsp;Get top by owner&lt;/div&gt;&lt;div&gt;&lt;br&gt;&lt;/div&gt;" style="rounded=1;whiteSpace=wrap;html=1;fillColor=#f8cecc;strokeColor=#66FF66;fontSize=16;" parent="1" vertex="1">
          <mxGeometry x="2683" y="741" width="120" height="60" as="geometry" />
        </mxCell>
        <mxCell id="NXJJWlPIzXNzET5rZxup-324" style="edgeStyle=none;curved=1;rounded=0;orthogonalLoop=1;jettySize=auto;html=1;entryX=0.75;entryY=0;entryDx=0;entryDy=0;fontSize=16;startSize=8;endSize=8;" parent="1" source="NXJJWlPIzXNzET5rZxup-143" target="NXJJWlPIzXNzET5rZxup-317" edge="1">
          <mxGeometry relative="1" as="geometry" />
        </mxCell>
        <mxCell id="NXJJWlPIzXNzET5rZxup-143" value="&lt;div&gt;&amp;nbsp;Get top by bussiness&amp;nbsp;&lt;/div&gt;" style="rounded=1;whiteSpace=wrap;html=1;fillColor=#f8cecc;strokeColor=#0AFF23;fontSize=16;" parent="1" vertex="1">
          <mxGeometry x="1942" y="279" width="120" height="60" as="geometry" />
        </mxCell>
        <mxCell id="NXJJWlPIzXNzET5rZxup-322" style="edgeStyle=none;curved=1;rounded=0;orthogonalLoop=1;jettySize=auto;html=1;entryX=0.5;entryY=0;entryDx=0;entryDy=0;fontSize=16;startSize=8;endSize=8;" parent="1" source="NXJJWlPIzXNzET5rZxup-144" target="NXJJWlPIzXNzET5rZxup-315" edge="1">
          <mxGeometry relative="1" as="geometry" />
        </mxCell>
        <mxCell id="NXJJWlPIzXNzET5rZxup-144" value="Get popular by brand" style="rounded=1;whiteSpace=wrap;html=1;fillColor=#f8cecc;strokeColor=#0AFF23;fontSize=16;" parent="1" vertex="1">
          <mxGeometry x="1752" y="89" width="120" height="60" as="geometry" />
        </mxCell>
        <mxCell id="NXJJWlPIzXNzET5rZxup-145" value="Get popular by brand limited" style="rounded=1;whiteSpace=wrap;html=1;fillColor=#f8cecc;strokeColor=#66FF66;fontSize=16;" parent="1" vertex="1">
          <mxGeometry x="-130" y="-127" width="120" height="60" as="geometry" />
        </mxCell>
        <mxCell id="NXJJWlPIzXNzET5rZxup-146" value="Get popular by bussiness limited" style="rounded=1;whiteSpace=wrap;html=1;fillColor=#f8cecc;strokeColor=#66FF66;fontSize=16;" parent="1" vertex="1">
          <mxGeometry x="-130" y="24" width="120" height="60" as="geometry" />
        </mxCell>
        <mxCell id="NXJJWlPIzXNzET5rZxup-325" style="edgeStyle=none;curved=1;rounded=0;orthogonalLoop=1;jettySize=auto;html=1;fontSize=16;startSize=8;endSize=8;" parent="1" source="NXJJWlPIzXNzET5rZxup-147" target="NXJJWlPIzXNzET5rZxup-317" edge="1">
          <mxGeometry relative="1" as="geometry" />
        </mxCell>
        <mxCell id="NXJJWlPIzXNzET5rZxup-147" value="Get popular by bussines" style="rounded=1;whiteSpace=wrap;html=1;fillColor=#f8cecc;strokeColor=#0AFF23;fontSize=16;" parent="1" vertex="1">
          <mxGeometry x="1942" y="112" width="120" height="60" as="geometry" />
        </mxCell>
        <mxCell id="NXJJWlPIzXNzET5rZxup-148" value="Get popular by city limited" style="rounded=1;whiteSpace=wrap;html=1;fillColor=#f8cecc;strokeColor=#66FF66;fontSize=16;" parent="1" vertex="1">
          <mxGeometry x="-130" y="-52" width="120" height="60" as="geometry" />
        </mxCell>
        <mxCell id="NXJJWlPIzXNzET5rZxup-251" style="edgeStyle=none;curved=1;rounded=0;orthogonalLoop=1;jettySize=auto;html=1;exitX=1;exitY=1;exitDx=0;exitDy=0;fontSize=16;startSize=8;endSize=8;labelBorderColor=none;" parent="1" source="NXJJWlPIzXNzET5rZxup-149" target="NXJJWlPIzXNzET5rZxup-175" edge="1">
          <mxGeometry relative="1" as="geometry" />
        </mxCell>
        <mxCell id="NXJJWlPIzXNzET5rZxup-314" style="edgeStyle=none;curved=1;rounded=0;orthogonalLoop=1;jettySize=auto;html=1;exitX=0.25;exitY=1;exitDx=0;exitDy=0;fontSize=16;startSize=8;endSize=8;labelBorderColor=none;" parent="1" source="NXJJWlPIzXNzET5rZxup-149" target="NXJJWlPIzXNzET5rZxup-124" edge="1">
          <mxGeometry relative="1" as="geometry" />
        </mxCell>
        <mxCell id="NXJJWlPIzXNzET5rZxup-149" value="Get popular by city" style="rounded=1;whiteSpace=wrap;html=1;fillColor=#f8cecc;strokeColor=#66FF66;fontSize=16;" parent="1" vertex="1">
          <mxGeometry x="1202" y="773" width="120" height="60" as="geometry" />
        </mxCell>
        <mxCell id="NXJJWlPIzXNzET5rZxup-259" style="edgeStyle=none;curved=1;rounded=0;orthogonalLoop=1;jettySize=auto;html=1;exitX=0.5;exitY=1;exitDx=0;exitDy=0;entryX=0.5;entryY=0;entryDx=0;entryDy=0;fontSize=16;startSize=8;endSize=8;labelBorderColor=none;" parent="1" source="NXJJWlPIzXNzET5rZxup-152" target="NXJJWlPIzXNzET5rZxup-172" edge="1">
          <mxGeometry relative="1" as="geometry" />
        </mxCell>
        <mxCell id="NXJJWlPIzXNzET5rZxup-152" value="Get by product" style="rounded=1;whiteSpace=wrap;html=1;fillColor=#fff2cc;strokeColor=#66FF66;fontSize=16;" parent="1" vertex="1">
          <mxGeometry x="511" y="780" width="120" height="60" as="geometry" />
        </mxCell>
        <mxCell id="NXJJWlPIzXNzET5rZxup-204" style="edgeStyle=none;curved=1;rounded=0;orthogonalLoop=1;jettySize=auto;html=1;entryX=1;entryY=0.5;entryDx=0;entryDy=0;fontSize=16;startSize=8;endSize=8;" parent="1" source="NXJJWlPIzXNzET5rZxup-153" target="NXJJWlPIzXNzET5rZxup-89" edge="1">
          <mxGeometry relative="1" as="geometry" />
        </mxCell>
        <mxCell id="NXJJWlPIzXNzET5rZxup-153" value="Get by user" style="rounded=1;whiteSpace=wrap;html=1;fillColor=#fff2cc;strokeColor=#66FF66;fontSize=16;" parent="1" vertex="1">
          <mxGeometry x="-353" y="669" width="120" height="60" as="geometry" />
        </mxCell>
        <mxCell id="NXJJWlPIzXNzET5rZxup-257" style="edgeStyle=none;curved=1;rounded=0;orthogonalLoop=1;jettySize=auto;html=1;entryX=0.5;entryY=0;entryDx=0;entryDy=0;fontSize=16;startSize=8;endSize=8;labelBorderColor=none;" parent="1" source="NXJJWlPIzXNzET5rZxup-156" target="NXJJWlPIzXNzET5rZxup-173" edge="1">
          <mxGeometry relative="1" as="geometry" />
        </mxCell>
        <mxCell id="NXJJWlPIzXNzET5rZxup-156" value="Get avg by product" style="rounded=1;whiteSpace=wrap;html=1;fillColor=#fff2cc;strokeColor=#66FF66;fontSize=16;" parent="1" vertex="1">
          <mxGeometry x="360" y="776" width="120" height="60" as="geometry" />
        </mxCell>
        <mxCell id="NXJJWlPIzXNzET5rZxup-157" value="find by newest" style="rounded=1;whiteSpace=wrap;html=1;fillColor=#dae8fc;strokeColor=#66FF66;fontSize=16;labelBorderColor=none;" parent="1" vertex="1">
          <mxGeometry x="-2166" y="1108" width="120" height="60" as="geometry" />
        </mxCell>
        <mxCell id="NXJJWlPIzXNzET5rZxup-158" value="find by top rated" style="rounded=1;whiteSpace=wrap;html=1;fillColor=#dae8fc;strokeColor=#66FF66;fontSize=16;labelBorderColor=none;" parent="1" vertex="1">
          <mxGeometry x="-2166" y="1281" width="120" height="60" as="geometry" />
        </mxCell>
        <mxCell id="NXJJWlPIzXNzET5rZxup-159" value="find by nearest" style="rounded=1;whiteSpace=wrap;html=1;fillColor=#dae8fc;strokeColor=#66FF66;fontSize=16;labelBorderColor=none;" parent="1" vertex="1">
          <mxGeometry x="-2166" y="1025" width="120" height="60" as="geometry" />
        </mxCell>
        <mxCell id="NXJJWlPIzXNzET5rZxup-160" value="find by popular" style="rounded=1;whiteSpace=wrap;html=1;fillColor=#dae8fc;strokeColor=#66FF66;fontSize=16;labelBorderColor=none;" parent="1" vertex="1">
          <mxGeometry x="-2166" y="946" width="120" height="60" as="geometry" />
        </mxCell>
        <mxCell id="NXJJWlPIzXNzET5rZxup-161" value="find by most discount" style="rounded=1;whiteSpace=wrap;html=1;fillColor=#dae8fc;strokeColor=#66FF66;fontSize=16;labelBorderColor=none;" parent="1" vertex="1">
          <mxGeometry x="-2166" y="1197" width="120" height="60" as="geometry" />
        </mxCell>
        <mxCell id="NXJJWlPIzXNzET5rZxup-162" value="find by product slug&amp;nbsp;" style="rounded=1;whiteSpace=wrap;html=1;fillColor=#dae8fc;strokeColor=#66FF66;fontSize=16;labelBorderColor=none;" parent="1" vertex="1">
          <mxGeometry x="-2337" y="1421" width="120" height="60" as="geometry" />
        </mxCell>
        <mxCell id="NXJJWlPIzXNzET5rZxup-163" value="find by slug" style="rounded=1;whiteSpace=wrap;html=1;fillColor=#dae8fc;strokeColor=#66FF66;fontSize=16;labelBorderColor=none;" parent="1" vertex="1">
          <mxGeometry x="-2166" y="866" width="120" height="60" as="geometry" />
        </mxCell>
        <mxCell id="NXJJWlPIzXNzET5rZxup-165" value="&amp;nbsp;find top rated" style="rounded=1;whiteSpace=wrap;html=1;fillColor=#f8cecc;strokeColor=#66FF66;fontSize=16;labelBorderColor=none;" parent="1" vertex="1">
          <mxGeometry x="-2323" y="1170" width="120" height="60" as="geometry" />
        </mxCell>
        <mxCell id="NXJJWlPIzXNzET5rZxup-166" value="&amp;nbsp;find newest&amp;nbsp;&amp;nbsp;" style="rounded=1;whiteSpace=wrap;html=1;fillColor=#f8cecc;strokeColor=#66FF66;fontSize=16;labelBorderColor=none;" parent="1" vertex="1">
          <mxGeometry x="-2323" y="869" width="120" height="60" as="geometry" />
        </mxCell>
        <mxCell id="NXJJWlPIzXNzET5rZxup-167" value="&amp;nbsp;find popular&amp;nbsp;" style="rounded=1;whiteSpace=wrap;html=1;fillColor=#f8cecc;strokeColor=#66FF66;fontSize=16;labelBorderColor=none;" parent="1" vertex="1">
          <mxGeometry x="-2327" y="1091" width="120" height="60" as="geometry" />
        </mxCell>
        <mxCell id="NXJJWlPIzXNzET5rZxup-168" value="&amp;nbsp;find by slug&amp;nbsp;" style="rounded=1;whiteSpace=wrap;html=1;fillColor=#f8cecc;strokeColor=#66FF66;fontSize=16;labelBorderColor=none;" parent="1" vertex="1">
          <mxGeometry x="-2323" y="941" width="120" height="60" as="geometry" />
        </mxCell>
        <mxCell id="NXJJWlPIzXNzET5rZxup-169" value="&amp;nbsp;find all discount&amp;nbsp;" style="rounded=1;whiteSpace=wrap;html=1;fillColor=#f8cecc;strokeColor=#66FF66;fontSize=16;labelBorderColor=none;" parent="1" vertex="1">
          <mxGeometry x="-2327" y="1019" width="120" height="60" as="geometry" />
        </mxCell>
        <mxCell id="QpYXfKqDC9RKlLKm9F4h-8" style="edgeStyle=none;curved=1;rounded=0;orthogonalLoop=1;jettySize=auto;html=1;exitX=0.75;exitY=1;exitDx=0;exitDy=0;fontSize=12;startSize=8;endSize=8;entryX=0.25;entryY=0;entryDx=0;entryDy=0;" parent="1" source="NXJJWlPIzXNzET5rZxup-170" target="NXJJWlPIzXNzET5rZxup-192" edge="1">
          <mxGeometry relative="1" as="geometry" />
        </mxCell>
        <mxCell id="NXJJWlPIzXNzET5rZxup-170" value="Get avg by bussiness" style="rounded=1;whiteSpace=wrap;html=1;fillColor=#fff2cc;strokeColor=#66FF66;fontSize=16;labelBorderColor=none;" parent="1" vertex="1">
          <mxGeometry x="305" y="998" width="120" height="60" as="geometry" />
        </mxCell>
        <mxCell id="QpYXfKqDC9RKlLKm9F4h-13" style="edgeStyle=none;curved=1;rounded=0;orthogonalLoop=1;jettySize=auto;html=1;fontSize=12;startSize=8;endSize=8;entryX=0.5;entryY=0;entryDx=0;entryDy=0;" parent="1" source="NXJJWlPIzXNzET5rZxup-171" target="QpYXfKqDC9RKlLKm9F4h-12" edge="1">
          <mxGeometry relative="1" as="geometry" />
        </mxCell>
        <mxCell id="NXJJWlPIzXNzET5rZxup-171" value="Get by bussiness" style="rounded=1;whiteSpace=wrap;html=1;fillColor=#fff2cc;strokeColor=#66FF66;fontSize=16;labelBorderColor=none;" parent="1" vertex="1">
          <mxGeometry x="208" y="921" width="120" height="60" as="geometry" />
        </mxCell>
        <mxCell id="NXJJWlPIzXNzET5rZxup-172" value="Get by product" style="rounded=1;whiteSpace=wrap;html=1;fillColor=#fff2cc;strokeColor=#66FF66;fontSize=16;labelBorderColor=none;" parent="1" vertex="1">
          <mxGeometry x="538" y="910" width="120" height="60" as="geometry" />
        </mxCell>
        <mxCell id="QpYXfKqDC9RKlLKm9F4h-7" style="edgeStyle=none;curved=1;rounded=0;orthogonalLoop=1;jettySize=auto;html=1;exitX=0.75;exitY=1;exitDx=0;exitDy=0;entryX=0.25;entryY=0;entryDx=0;entryDy=0;fontSize=12;startSize=8;endSize=8;" parent="1" source="NXJJWlPIzXNzET5rZxup-173" target="NXJJWlPIzXNzET5rZxup-190" edge="1">
          <mxGeometry relative="1" as="geometry" />
        </mxCell>
        <mxCell id="NXJJWlPIzXNzET5rZxup-173" value="Get avg by product" style="rounded=1;whiteSpace=wrap;html=1;fillColor=#fff2cc;strokeColor=#66FF66;fontSize=16;labelBorderColor=none;" parent="1" vertex="1">
          <mxGeometry x="355" y="921" width="120" height="60" as="geometry" />
        </mxCell>
        <mxCell id="NXJJWlPIzXNzET5rZxup-360" style="edgeStyle=none;curved=1;rounded=0;orthogonalLoop=1;jettySize=auto;html=1;exitX=0.75;exitY=1;exitDx=0;exitDy=0;fontSize=16;startSize=8;endSize=8;" parent="1" source="NXJJWlPIzXNzET5rZxup-175" target="NXJJWlPIzXNzET5rZxup-348" edge="1">
          <mxGeometry relative="1" as="geometry" />
        </mxCell>
        <mxCell id="NXJJWlPIzXNzET5rZxup-175" value="by product" style="rounded=1;whiteSpace=wrap;html=1;fillColor=#b0e3e6;strokeColor=#66FF66;fontSize=16;labelBorderColor=none;" parent="1" vertex="1">
          <mxGeometry x="1277" y="902" width="120" height="60" as="geometry" />
        </mxCell>
        <mxCell id="NXJJWlPIzXNzET5rZxup-177" value="&lt;div&gt;find by unpop products&lt;/div&gt;&lt;div&gt;&lt;br&gt;&lt;/div&gt;" style="rounded=1;whiteSpace=wrap;html=1;fillColor=#d0cee2;strokeColor=#66FF66;fontSize=16;labelBorderColor=none;" parent="1" vertex="1">
          <mxGeometry x="2712" y="1239" width="120" height="60" as="geometry" />
        </mxCell>
        <mxCell id="NXJJWlPIzXNzET5rZxup-178" value="&lt;div&gt;find by pop products&amp;nbsp;&lt;/div&gt;&lt;div&gt;&lt;br&gt;&lt;/div&gt;" style="rounded=1;whiteSpace=wrap;html=1;fillColor=#d0cee2;strokeColor=#66FF66;fontSize=16;labelBorderColor=none;" parent="1" vertex="1">
          <mxGeometry x="2712" y="1315" width="120" height="60" as="geometry" />
        </mxCell>
        <mxCell id="NXJJWlPIzXNzET5rZxup-179" value="&lt;div&gt;find by less rated products&lt;/div&gt;&lt;div&gt;&lt;br&gt;&lt;/div&gt;" style="rounded=1;whiteSpace=wrap;html=1;fillColor=#d0cee2;strokeColor=#66FF66;fontSize=16;labelBorderColor=none;" parent="1" vertex="1">
          <mxGeometry x="2436" y="1310" width="120" height="60" as="geometry" />
        </mxCell>
        <mxCell id="NXJJWlPIzXNzET5rZxup-180" value="&lt;div&gt;find by top rated products&amp;nbsp;&lt;/div&gt;" style="rounded=1;whiteSpace=wrap;html=1;fillColor=#d0cee2;strokeColor=#66FF66;fontSize=16;labelBorderColor=none;" parent="1" vertex="1">
          <mxGeometry x="2439" y="1239" width="120" height="60" as="geometry" />
        </mxCell>
        <mxCell id="NXJJWlPIzXNzET5rZxup-181" value="&lt;div&gt;find by top rated bussiness&lt;/div&gt;&lt;div&gt;&lt;br&gt;&lt;/div&gt;" style="rounded=1;whiteSpace=wrap;html=1;fillColor=#d0cee2;strokeColor=#66FF66;fontSize=16;labelBorderColor=none;" parent="1" vertex="1">
          <mxGeometry x="2306" y="1313" width="120" height="60" as="geometry" />
        </mxCell>
        <mxCell id="NXJJWlPIzXNzET5rZxup-182" value="&lt;div&gt;find by less rated bussiness&lt;/div&gt;" style="rounded=1;whiteSpace=wrap;html=1;fillColor=#d0cee2;strokeColor=#66FF66;fontSize=16;labelBorderColor=none;" parent="1" vertex="1">
          <mxGeometry x="2309" y="1238" width="120" height="60" as="geometry" />
        </mxCell>
        <mxCell id="NXJJWlPIzXNzET5rZxup-183" value="&lt;div&gt;find by pop bussiness&lt;/div&gt;&lt;div&gt;&lt;br&gt;&lt;/div&gt;" style="rounded=1;whiteSpace=wrap;html=1;fillColor=#d0cee2;strokeColor=#66FF66;fontSize=16;labelBorderColor=none;" parent="1" vertex="1">
          <mxGeometry x="2575" y="1239" width="120" height="60" as="geometry" />
        </mxCell>
        <mxCell id="NXJJWlPIzXNzET5rZxup-184" value="&lt;div&gt;find by unpop bussiness&amp;nbsp;&lt;/div&gt;&lt;div&gt;&lt;br&gt;&lt;/div&gt;" style="rounded=1;whiteSpace=wrap;html=1;fillColor=#d0cee2;strokeColor=#66FF66;fontSize=16;labelBorderColor=none;" parent="1" vertex="1">
          <mxGeometry x="2577" y="1310" width="120" height="60" as="geometry" />
        </mxCell>
        <mxCell id="NXJJWlPIzXNzET5rZxup-186" value="" style="endArrow=none;dashed=1;html=1;dashPattern=1 3;strokeWidth=2;rounded=0;fontSize=16;startSize=8;endSize=8;curved=1;" parent="1" edge="1">
          <mxGeometry width="50" height="50" relative="1" as="geometry">
            <mxPoint x="-2132" y="1752" as="sourcePoint" />
            <mxPoint x="3064" y="1772" as="targetPoint" />
          </mxGeometry>
        </mxCell>
        <mxCell id="NXJJWlPIzXNzET5rZxup-187" value="owner dashboard" style="rounded=1;whiteSpace=wrap;html=1;fontSize=16;strokeColor=#FF6666;" parent="1" vertex="1">
          <mxGeometry x="2004" y="1868" width="120" height="60" as="geometry" />
        </mxCell>
        <mxCell id="NXJJWlPIzXNzET5rZxup-188" value="client dashboard" style="rounded=1;whiteSpace=wrap;html=1;fontSize=16;strokeColor=#0AFF23;" parent="1" vertex="1">
          <mxGeometry x="196" y="1799" width="120" height="60" as="geometry" />
        </mxCell>
        <mxCell id="NXJJWlPIzXNzET5rZxup-189" value="admin dashboard" style="rounded=1;whiteSpace=wrap;html=1;fontSize=16;strokeColor=#FF6666;" parent="1" vertex="1">
          <mxGeometry x="-584" y="2075" width="120" height="60" as="geometry" />
        </mxCell>
        <mxCell id="NXJJWlPIzXNzET5rZxup-190" value="product details" style="rounded=1;whiteSpace=wrap;html=1;fillColor=#d5e8d4;gradientColor=#97d077;strokeColor=#66FF66;fontSize=16;" parent="1" vertex="1">
          <mxGeometry x="640" y="1897" width="120" height="60" as="geometry" />
        </mxCell>
        <mxCell id="NXJJWlPIzXNzET5rZxup-191" value="brands details" style="rounded=1;whiteSpace=wrap;html=1;fillColor=#d5e8d4;gradientColor=#97d077;strokeColor=#66FF66;fontSize=16;" parent="1" vertex="1">
          <mxGeometry x="415" y="1822" width="120" height="60" as="geometry" />
        </mxCell>
        <mxCell id="NXJJWlPIzXNzET5rZxup-192" value="bussiness details" style="rounded=1;whiteSpace=wrap;html=1;fillColor=#d5e8d4;gradientColor=#97d077;strokeColor=#66FF66;fontSize=16;" parent="1" vertex="1">
          <mxGeometry x="753" y="1825" width="120" height="60" as="geometry" />
        </mxCell>
        <mxCell id="NXJJWlPIzXNzET5rZxup-193" value="create bussiness" style="rounded=1;whiteSpace=wrap;html=1;fillColor=#f8cecc;gradientColor=#ea6b66;strokeColor=#FF6666;fontSize=16;" parent="1" vertex="1">
          <mxGeometry x="-1775" y="1828" width="120" height="60" as="geometry" />
        </mxCell>
        <mxCell id="NXJJWlPIzXNzET5rZxup-194" value="create products" style="rounded=1;whiteSpace=wrap;html=1;fillColor=#f8cecc;gradientColor=#ea6b66;strokeColor=#FF6666;fontSize=16;" parent="1" vertex="1">
          <mxGeometry x="-1775" y="1971" width="120" height="60" as="geometry" />
        </mxCell>
        <mxCell id="NXJJWlPIzXNzET5rZxup-195" value="create stock" style="rounded=1;whiteSpace=wrap;html=1;fillColor=#f8cecc;gradientColor=#ea6b66;strokeColor=#FF6666;fontSize=16;" parent="1" vertex="1">
          <mxGeometry x="-1204" y="1837" width="120" height="60" as="geometry" />
        </mxCell>
        <mxCell id="NXJJWlPIzXNzET5rZxup-196" value="create brand" style="rounded=1;whiteSpace=wrap;html=1;fillColor=#f8cecc;gradientColor=#ea6b66;strokeColor=#FF6666;fontSize=16;" parent="1" vertex="1">
          <mxGeometry x="-1204" y="1979" width="120" height="60" as="geometry" />
        </mxCell>
        <mxCell id="NXJJWlPIzXNzET5rZxup-197" style="edgeStyle=none;curved=1;rounded=0;orthogonalLoop=1;jettySize=auto;html=1;exitX=0.75;exitY=0;exitDx=0;exitDy=0;fontSize=16;startSize=8;endSize=8;strokeColor=#FF6666;" parent="1" source="NXJJWlPIzXNzET5rZxup-194" target="NXJJWlPIzXNzET5rZxup-194" edge="1">
          <mxGeometry relative="1" as="geometry" />
        </mxCell>
        <mxCell id="NXJJWlPIzXNzET5rZxup-198" value="edit bussiness" style="rounded=1;whiteSpace=wrap;html=1;fillColor=#e6d0de;gradientColor=#d5739d;strokeColor=#FF6666;fontSize=16;" parent="1" vertex="1">
          <mxGeometry x="-1775" y="1897" width="120" height="60" as="geometry" />
        </mxCell>
        <mxCell id="NXJJWlPIzXNzET5rZxup-199" value="edit products" style="rounded=1;whiteSpace=wrap;html=1;fillColor=#e6d0de;gradientColor=#d5739d;strokeColor=#FF6666;fontSize=16;" parent="1" vertex="1">
          <mxGeometry x="-1775" y="2045" width="120" height="60" as="geometry" />
        </mxCell>
        <mxCell id="NXJJWlPIzXNzET5rZxup-200" value="edit stock" style="rounded=1;whiteSpace=wrap;html=1;fillColor=#e6d0de;gradientColor=#d5739d;strokeColor=#FF6666;fontSize=16;" parent="1" vertex="1">
          <mxGeometry x="-1204" y="1908" width="120" height="60" as="geometry" />
        </mxCell>
        <mxCell id="NXJJWlPIzXNzET5rZxup-201" value="edit brand" style="rounded=1;whiteSpace=wrap;html=1;fillColor=#e6d0de;gradientColor=#d5739d;strokeColor=#FF6666;fontSize=16;" parent="1" vertex="1">
          <mxGeometry x="-1204" y="2049" width="120" height="60" as="geometry" />
        </mxCell>
        <mxCell id="NXJJWlPIzXNzET5rZxup-202" style="edgeStyle=none;curved=1;rounded=0;orthogonalLoop=1;jettySize=auto;html=1;exitX=0.75;exitY=0;exitDx=0;exitDy=0;fontSize=16;startSize=8;endSize=8;fillColor=#e6d0de;gradientColor=#d5739d;strokeColor=#FF6666;" parent="1" source="NXJJWlPIzXNzET5rZxup-199" target="NXJJWlPIzXNzET5rZxup-199" edge="1">
          <mxGeometry relative="1" as="geometry" />
        </mxCell>
        <mxCell id="NXJJWlPIzXNzET5rZxup-209" value="edit form" style="rounded=1;whiteSpace=wrap;html=1;fillColor=#dae8fc;strokeColor=#66FF66;fontSize=16;labelBorderColor=none;" parent="1" vertex="1">
          <mxGeometry x="-1571" y="1468" width="120" height="60" as="geometry" />
        </mxCell>
        <mxCell id="NXJJWlPIzXNzET5rZxup-212" value="create form" style="rounded=1;whiteSpace=wrap;html=1;fillColor=#d5e8d4;strokeColor=#66FF66;fontSize=16;labelBorderColor=none;" parent="1" vertex="1">
          <mxGeometry x="-1431" y="1558" width="120" height="60" as="geometry" />
        </mxCell>
        <mxCell id="NXJJWlPIzXNzET5rZxup-213" value="edit form" style="rounded=1;whiteSpace=wrap;html=1;fillColor=#d5e8d4;strokeColor=#66FF66;fontSize=16;" parent="1" vertex="1">
          <mxGeometry x="-1431" y="1640" width="120" height="60" as="geometry" />
        </mxCell>
        <mxCell id="NXJJWlPIzXNzET5rZxup-222" value="Get newest limited" style="rounded=1;whiteSpace=wrap;html=1;fillColor=#dae8fc;strokeColor=#66FF66;fontSize=16;" parent="1" vertex="1">
          <mxGeometry x="-412" y="-183" width="120" height="60" as="geometry" />
        </mxCell>
        <mxCell id="NXJJWlPIzXNzET5rZxup-230" value="create form" style="rounded=1;whiteSpace=wrap;html=1;fillColor=#f8cecc;strokeColor=#66FF66;fontSize=16;labelBorderColor=none;" parent="1" vertex="1">
          <mxGeometry x="-1566" y="1539" width="120" height="60" as="geometry" />
        </mxCell>
        <mxCell id="NXJJWlPIzXNzET5rZxup-231" value="edit form" style="rounded=1;whiteSpace=wrap;html=1;fillColor=#f8cecc;strokeColor=#66FF66;fontSize=16;labelBorderColor=none;" parent="1" vertex="1">
          <mxGeometry x="-1571" y="1617" width="120" height="60" as="geometry" />
        </mxCell>
        <mxCell id="NXJJWlPIzXNzET5rZxup-234" style="edgeStyle=none;curved=1;rounded=0;orthogonalLoop=1;jettySize=auto;html=1;exitX=0.75;exitY=1;exitDx=0;exitDy=0;fontSize=16;startSize=8;endSize=8;" parent="1" source="NXJJWlPIzXNzET5rZxup-233" target="NXJJWlPIzXNzET5rZxup-123" edge="1">
          <mxGeometry relative="1" as="geometry" />
        </mxCell>
        <mxCell id="NXJJWlPIzXNzET5rZxup-233" value="" style="rounded=0;whiteSpace=wrap;html=1;fillColor=none;strokeColor=#66FF66;fontSize=16;" parent="1" vertex="1">
          <mxGeometry x="-436" y="-256" width="180" height="337" as="geometry" />
        </mxCell>
        <mxCell id="NXJJWlPIzXNzET5rZxup-237" style="edgeStyle=none;curved=1;rounded=0;orthogonalLoop=1;jettySize=auto;html=1;exitX=0.5;exitY=1;exitDx=0;exitDy=0;entryX=0.5;entryY=0;entryDx=0;entryDy=0;fontSize=16;startSize=8;endSize=8;" parent="1" source="NXJJWlPIzXNzET5rZxup-236" target="NXJJWlPIzXNzET5rZxup-123" edge="1">
          <mxGeometry relative="1" as="geometry" />
        </mxCell>
        <mxCell id="NXJJWlPIzXNzET5rZxup-236" value="" style="rounded=0;whiteSpace=wrap;html=1;fillColor=none;strokeColor=#66FF66;fontSize=16;" parent="1" vertex="1">
          <mxGeometry x="-170" y="-309" width="180" height="410" as="geometry" />
        </mxCell>
        <mxCell id="NXJJWlPIzXNzET5rZxup-245" style="edgeStyle=none;curved=1;rounded=0;orthogonalLoop=1;jettySize=auto;html=1;exitX=0.5;exitY=1;exitDx=0;exitDy=0;fontSize=16;startSize=8;endSize=8;strokeColor=#66FF66;" parent="1" source="NXJJWlPIzXNzET5rZxup-141" target="NXJJWlPIzXNzET5rZxup-141" edge="1">
          <mxGeometry relative="1" as="geometry" />
        </mxCell>
        <mxCell id="NXJJWlPIzXNzET5rZxup-260" style="edgeStyle=none;curved=1;rounded=0;orthogonalLoop=1;jettySize=auto;html=1;exitX=0;exitY=1;exitDx=0;exitDy=0;entryX=0.672;entryY=0.083;entryDx=0;entryDy=0;entryPerimeter=0;fontSize=16;startSize=8;endSize=8;" parent="1" source="NXJJWlPIzXNzET5rZxup-83" target="NXJJWlPIzXNzET5rZxup-111" edge="1">
          <mxGeometry relative="1" as="geometry" />
        </mxCell>
        <mxCell id="NXJJWlPIzXNzET5rZxup-262" value="create form" style="rounded=1;whiteSpace=wrap;html=1;fillColor=#f5f5f5;strokeColor=#66FF66;fontSize=16;fontColor=#333333;labelBorderColor=none;" parent="1" vertex="1">
          <mxGeometry x="-1429" y="1402" width="120" height="60" as="geometry" />
        </mxCell>
        <mxCell id="NXJJWlPIzXNzET5rZxup-263" value="edit form" style="rounded=1;whiteSpace=wrap;html=1;fillColor=#f5f5f5;strokeColor=#66FF66;fontSize=16;fontColor=#333333;labelBorderColor=none;" parent="1" vertex="1">
          <mxGeometry x="-1429" y="1484" width="120" height="60" as="geometry" />
        </mxCell>
        <mxCell id="NXJJWlPIzXNzET5rZxup-278" value="" style="edgeStyle=none;curved=1;rounded=0;orthogonalLoop=1;jettySize=auto;html=1;fontSize=16;startSize=8;endSize=8;labelBorderColor=none;strokeColor=#66FF66;" parent="1" source="NXJJWlPIzXNzET5rZxup-276" target="NXJJWlPIzXNzET5rZxup-128" edge="1">
          <mxGeometry relative="1" as="geometry" />
        </mxCell>
        <mxCell id="NXJJWlPIzXNzET5rZxup-352" style="edgeStyle=none;curved=1;rounded=0;orthogonalLoop=1;jettySize=auto;html=1;fontSize=16;startSize=8;endSize=8;" parent="1" source="NXJJWlPIzXNzET5rZxup-276" target="NXJJWlPIzXNzET5rZxup-351" edge="1">
          <mxGeometry relative="1" as="geometry" />
        </mxCell>
        <mxCell id="NXJJWlPIzXNzET5rZxup-276" value="" style="rounded=0;whiteSpace=wrap;html=1;fillColor=none;labelBorderColor=none;strokeColor=#66FF66;fontSize=16;" parent="1" vertex="1">
          <mxGeometry x="2269" y="1213" width="635" height="191" as="geometry" />
        </mxCell>
        <mxCell id="NXJJWlPIzXNzET5rZxup-283" value="Get by owner all" style="rounded=1;whiteSpace=wrap;html=1;fillColor=#dae8fc;strokeColor=#66FF66;fontSize=16;" parent="1" vertex="1">
          <mxGeometry x="671" y="-103" width="120" height="60" as="geometry" />
        </mxCell>
        <mxCell id="NXJJWlPIzXNzET5rZxup-289" style="edgeStyle=none;curved=1;rounded=0;orthogonalLoop=1;jettySize=auto;html=1;exitX=0.25;exitY=1;exitDx=0;exitDy=0;entryX=1;entryY=0.5;entryDx=0;entryDy=0;fontSize=16;startSize=8;endSize=8;" parent="1" source="NXJJWlPIzXNzET5rZxup-284" target="NXJJWlPIzXNzET5rZxup-128" edge="1">
          <mxGeometry relative="1" as="geometry" />
        </mxCell>
        <mxCell id="NXJJWlPIzXNzET5rZxup-284" value="Get by owner popular&amp;nbsp;" style="rounded=1;whiteSpace=wrap;html=1;fillColor=#dae8fc;strokeColor=#66FF66;fontSize=16;" parent="1" vertex="1">
          <mxGeometry x="2704" y="503" width="120" height="60" as="geometry" />
        </mxCell>
        <mxCell id="NXJJWlPIzXNzET5rZxup-290" style="edgeStyle=none;curved=1;rounded=0;orthogonalLoop=1;jettySize=auto;html=1;exitX=0;exitY=0.75;exitDx=0;exitDy=0;entryX=0.25;entryY=0;entryDx=0;entryDy=0;fontSize=16;startSize=8;endSize=8;" parent="1" source="NXJJWlPIzXNzET5rZxup-285" target="NXJJWlPIzXNzET5rZxup-128" edge="1">
          <mxGeometry relative="1" as="geometry" />
        </mxCell>
        <mxCell id="NXJJWlPIzXNzET5rZxup-285" value="Get by owner top&amp;nbsp;" style="rounded=1;whiteSpace=wrap;html=1;fillColor=#dae8fc;strokeColor=#66FF66;fontSize=16;" parent="1" vertex="1">
          <mxGeometry x="2690" y="653" width="120" height="60" as="geometry" />
        </mxCell>
        <mxCell id="NXJJWlPIzXNzET5rZxup-291" style="edgeStyle=none;curved=1;rounded=0;orthogonalLoop=1;jettySize=auto;html=1;entryX=0.925;entryY=0.061;entryDx=0;entryDy=0;entryPerimeter=0;fontSize=16;startSize=8;endSize=8;" parent="1" source="NXJJWlPIzXNzET5rZxup-72" target="NXJJWlPIzXNzET5rZxup-129" edge="1">
          <mxGeometry relative="1" as="geometry" />
        </mxCell>
        <mxCell id="NXJJWlPIzXNzET5rZxup-292" style="edgeStyle=none;curved=1;rounded=0;orthogonalLoop=1;jettySize=auto;html=1;entryX=0.636;entryY=0.061;entryDx=0;entryDy=0;entryPerimeter=0;fontSize=16;startSize=8;endSize=8;" parent="1" source="NXJJWlPIzXNzET5rZxup-284" target="NXJJWlPIzXNzET5rZxup-129" edge="1">
          <mxGeometry relative="1" as="geometry" />
        </mxCell>
        <mxCell id="NXJJWlPIzXNzET5rZxup-313" value="" style="edgeStyle=none;curved=1;rounded=0;orthogonalLoop=1;jettySize=auto;html=1;fontSize=16;startSize=8;endSize=8;strokeColor=#FF6666;" parent="1" source="NXJJWlPIzXNzET5rZxup-303" target="NXJJWlPIzXNzET5rZxup-312" edge="1">
          <mxGeometry relative="1" as="geometry" />
        </mxCell>
        <mxCell id="NXJJWlPIzXNzET5rZxup-303" value="" style="rounded=0;whiteSpace=wrap;html=1;fillColor=none;fontSize=16;" parent="1" vertex="1">
          <mxGeometry x="-1637" y="1345" width="407" height="388" as="geometry" />
        </mxCell>
        <mxCell id="NXJJWlPIzXNzET5rZxup-304" value="create form" style="rounded=1;whiteSpace=wrap;html=1;fillColor=#dae8fc;strokeColor=#FF6666;fontSize=16;" parent="1" vertex="1">
          <mxGeometry x="-1566" y="1825" width="120" height="60" as="geometry" />
        </mxCell>
        <mxCell id="NXJJWlPIzXNzET5rZxup-305" value="edit form" style="rounded=1;whiteSpace=wrap;html=1;fillColor=#dae8fc;strokeColor=#FF6666;fontSize=16;" parent="1" vertex="1">
          <mxGeometry x="-1571" y="1903" width="120" height="60" as="geometry" />
        </mxCell>
        <mxCell id="NXJJWlPIzXNzET5rZxup-306" value="create form" style="rounded=1;whiteSpace=wrap;html=1;fillColor=#d5e8d4;strokeColor=#FF6666;fontSize=16;" parent="1" vertex="1">
          <mxGeometry x="-1431" y="1993" width="120" height="60" as="geometry" />
        </mxCell>
        <mxCell id="NXJJWlPIzXNzET5rZxup-307" value="edit form" style="rounded=1;whiteSpace=wrap;html=1;fillColor=#d5e8d4;strokeColor=#FF6666;fontSize=16;" parent="1" vertex="1">
          <mxGeometry x="-1431" y="2075" width="120" height="60" as="geometry" />
        </mxCell>
        <mxCell id="NXJJWlPIzXNzET5rZxup-308" value="create form" style="rounded=1;whiteSpace=wrap;html=1;fillColor=#f8cecc;strokeColor=#FF6666;fontSize=16;" parent="1" vertex="1">
          <mxGeometry x="-1566" y="1974" width="120" height="60" as="geometry" />
        </mxCell>
        <mxCell id="NXJJWlPIzXNzET5rZxup-309" value="edit form" style="rounded=1;whiteSpace=wrap;html=1;fillColor=#f8cecc;strokeColor=#FF6666;fontSize=16;" parent="1" vertex="1">
          <mxGeometry x="-1571" y="2052" width="120" height="60" as="geometry" />
        </mxCell>
        <mxCell id="NXJJWlPIzXNzET5rZxup-310" value="create form" style="rounded=1;whiteSpace=wrap;html=1;fillColor=#f5f5f5;strokeColor=#FF6666;fontSize=16;fontColor=#333333;" parent="1" vertex="1">
          <mxGeometry x="-1429" y="1837" width="120" height="60" as="geometry" />
        </mxCell>
        <mxCell id="NXJJWlPIzXNzET5rZxup-311" value="edit form" style="rounded=1;whiteSpace=wrap;html=1;fillColor=#f5f5f5;strokeColor=#FF6666;fontSize=16;fontColor=#333333;" parent="1" vertex="1">
          <mxGeometry x="-1429" y="1919" width="120" height="60" as="geometry" />
        </mxCell>
        <mxCell id="NXJJWlPIzXNzET5rZxup-312" value="" style="rounded=0;whiteSpace=wrap;html=1;fillColor=none;strokeColor=#FF6666;fontSize=16;" parent="1" vertex="1">
          <mxGeometry x="-1637" y="1780" width="407" height="388" as="geometry" />
        </mxCell>
        <mxCell id="NXJJWlPIzXNzET5rZxup-355" style="edgeStyle=none;curved=1;rounded=0;orthogonalLoop=1;jettySize=auto;html=1;exitX=0.25;exitY=1;exitDx=0;exitDy=0;fontSize=16;startSize=8;endSize=8;" parent="1" source="NXJJWlPIzXNzET5rZxup-315" target="NXJJWlPIzXNzET5rZxup-347" edge="1">
          <mxGeometry relative="1" as="geometry" />
        </mxCell>
        <mxCell id="NXJJWlPIzXNzET5rZxup-315" value="fiters by brand" style="rounded=1;whiteSpace=wrap;html=1;fillColor=#d5e8d4;strokeColor=#0AFF23;fontSize=16;" parent="1" vertex="1">
          <mxGeometry x="1935" y="986" width="120" height="60" as="geometry" />
        </mxCell>
        <mxCell id="NXJJWlPIzXNzET5rZxup-358" style="edgeStyle=none;curved=1;rounded=0;orthogonalLoop=1;jettySize=auto;html=1;exitX=0.5;exitY=1;exitDx=0;exitDy=0;entryX=0.75;entryY=0;entryDx=0;entryDy=0;fontSize=16;startSize=8;endSize=8;" parent="1" source="NXJJWlPIzXNzET5rZxup-317" target="NXJJWlPIzXNzET5rZxup-349" edge="1">
          <mxGeometry relative="1" as="geometry" />
        </mxCell>
        <mxCell id="NXJJWlPIzXNzET5rZxup-317" value="fiters by bussiness" style="rounded=1;whiteSpace=wrap;html=1;fillColor=#dae8fc;strokeColor=#0AFF23;fontSize=16;" parent="1" vertex="1">
          <mxGeometry x="2046" y="907" width="120" height="60" as="geometry" />
        </mxCell>
        <mxCell id="NXJJWlPIzXNzET5rZxup-354" style="edgeStyle=none;curved=1;rounded=0;orthogonalLoop=1;jettySize=auto;html=1;exitX=0.25;exitY=1;exitDx=0;exitDy=0;fontSize=16;startSize=8;endSize=8;" parent="1" source="NXJJWlPIzXNzET5rZxup-330" target="NXJJWlPIzXNzET5rZxup-353" edge="1">
          <mxGeometry relative="1" as="geometry" />
        </mxCell>
        <mxCell id="NXJJWlPIzXNzET5rZxup-330" value="fiters by product" style="rounded=1;whiteSpace=wrap;html=1;fillColor=#f8cecc;strokeColor=#0AFF23;fontSize=16;" parent="1" vertex="1">
          <mxGeometry x="2068" y="1093" width="120" height="60" as="geometry" />
        </mxCell>
        <mxCell id="NXJJWlPIzXNzET5rZxup-338" style="edgeStyle=none;curved=1;rounded=0;orthogonalLoop=1;jettySize=auto;html=1;exitX=0.75;exitY=1;exitDx=0;exitDy=0;entryX=0.5;entryY=0;entryDx=0;entryDy=0;fontSize=16;startSize=8;endSize=8;" parent="1" source="NXJJWlPIzXNzET5rZxup-332" target="NXJJWlPIzXNzET5rZxup-335" edge="1">
          <mxGeometry relative="1" as="geometry" />
        </mxCell>
        <mxCell id="NXJJWlPIzXNzET5rZxup-332" value="Get details" style="rounded=1;whiteSpace=wrap;html=1;fillColor=#d5e8d4;strokeColor=#0AFF23;fontSize=16;" parent="1" vertex="1">
          <mxGeometry x="656" y="689" width="120" height="60" as="geometry" />
        </mxCell>
        <mxCell id="NXJJWlPIzXNzET5rZxup-337" style="edgeStyle=none;curved=1;rounded=0;orthogonalLoop=1;jettySize=auto;html=1;exitX=0.75;exitY=1;exitDx=0;exitDy=0;fontSize=16;startSize=8;endSize=8;" parent="1" source="NXJJWlPIzXNzET5rZxup-333" target="NXJJWlPIzXNzET5rZxup-336" edge="1">
          <mxGeometry relative="1" as="geometry" />
        </mxCell>
        <mxCell id="NXJJWlPIzXNzET5rZxup-333" value="Get details" style="rounded=1;whiteSpace=wrap;html=1;fillColor=#dae8fc;strokeColor=#0AFF23;fontSize=16;" parent="1" vertex="1">
          <mxGeometry x="728" y="595" width="120" height="60" as="geometry" />
        </mxCell>
        <mxCell id="NXJJWlPIzXNzET5rZxup-341" style="edgeStyle=none;curved=1;rounded=0;orthogonalLoop=1;jettySize=auto;html=1;exitX=0.75;exitY=1;exitDx=0;exitDy=0;entryX=0.5;entryY=0;entryDx=0;entryDy=0;fontSize=16;startSize=8;endSize=8;" parent="1" source="NXJJWlPIzXNzET5rZxup-334" target="NXJJWlPIzXNzET5rZxup-190" edge="1">
          <mxGeometry relative="1" as="geometry" />
        </mxCell>
        <mxCell id="NXJJWlPIzXNzET5rZxup-334" value="Get details" style="rounded=1;whiteSpace=wrap;html=1;fillColor=#f8cecc;strokeColor=#0AFF23;fontSize=16;" parent="1" vertex="1">
          <mxGeometry x="650" y="1336" width="120" height="60" as="geometry" />
        </mxCell>
        <mxCell id="NXJJWlPIzXNzET5rZxup-340" style="edgeStyle=none;curved=1;rounded=0;orthogonalLoop=1;jettySize=auto;html=1;exitX=0.75;exitY=1;exitDx=0;exitDy=0;fontSize=16;startSize=8;endSize=8;entryX=0.75;entryY=0;entryDx=0;entryDy=0;" parent="1" source="NXJJWlPIzXNzET5rZxup-335" target="NXJJWlPIzXNzET5rZxup-191" edge="1">
          <mxGeometry relative="1" as="geometry" />
        </mxCell>
        <mxCell id="NXJJWlPIzXNzET5rZxup-335" value="Get details" style="rounded=1;whiteSpace=wrap;html=1;fillColor=#d5e8d4;strokeColor=#0AFF23;fontSize=16;" parent="1" vertex="1">
          <mxGeometry x="515" y="1333" width="120" height="60" as="geometry" />
        </mxCell>
        <mxCell id="NXJJWlPIzXNzET5rZxup-342" style="edgeStyle=none;curved=1;rounded=0;orthogonalLoop=1;jettySize=auto;html=1;exitX=0.25;exitY=1;exitDx=0;exitDy=0;fontSize=16;startSize=8;endSize=8;" parent="1" source="NXJJWlPIzXNzET5rZxup-336" target="NXJJWlPIzXNzET5rZxup-192" edge="1">
          <mxGeometry relative="1" as="geometry" />
        </mxCell>
        <mxCell id="NXJJWlPIzXNzET5rZxup-336" value="Get details" style="rounded=1;whiteSpace=wrap;html=1;fillColor=#dae8fc;strokeColor=#0AFF23;fontSize=16;" parent="1" vertex="1">
          <mxGeometry x="793" y="1336" width="120" height="60" as="geometry" />
        </mxCell>
        <mxCell id="NXJJWlPIzXNzET5rZxup-347" value="brand search" style="rounded=1;whiteSpace=wrap;html=1;fillColor=#ffcd28;gradientColor=#ffa500;strokeColor=#FF6666;fontSize=16;" parent="1" vertex="1">
          <mxGeometry x="1171" y="1863" width="120" height="60" as="geometry" />
        </mxCell>
        <mxCell id="NXJJWlPIzXNzET5rZxup-348" value="client search" style="rounded=1;whiteSpace=wrap;html=1;fillColor=#ffcd28;gradientColor=#ffa500;strokeColor=#0AFF23;fontSize=16;" parent="1" vertex="1">
          <mxGeometry x="85" y="2323" width="120" height="60" as="geometry" />
        </mxCell>
        <mxCell id="NXJJWlPIzXNzET5rZxup-349" value="bussiness search" style="rounded=1;whiteSpace=wrap;html=1;fillColor=#ffcd28;gradientColor=#ffa500;strokeColor=#FF6666;fontSize=16;" parent="1" vertex="1">
          <mxGeometry x="1393" y="1848" width="120" height="60" as="geometry" />
        </mxCell>
        <mxCell id="NXJJWlPIzXNzET5rZxup-350" value="admin search" style="rounded=1;whiteSpace=wrap;html=1;fillColor=#ffcd28;gradientColor=#ffa500;strokeColor=#66FF66;fontSize=16;" parent="1" vertex="1">
          <mxGeometry x="-409" y="2101" width="120" height="60" as="geometry" />
        </mxCell>
        <mxCell id="NXJJWlPIzXNzET5rZxup-351" value="owner search" style="rounded=1;whiteSpace=wrap;html=1;fillColor=#ffcd28;gradientColor=#ffa500;strokeColor=#FF6666;fontSize=16;" parent="1" vertex="1">
          <mxGeometry x="2518" y="1971" width="120" height="60" as="geometry" />
        </mxCell>
        <mxCell id="NXJJWlPIzXNzET5rZxup-353" value="product search" style="rounded=1;whiteSpace=wrap;html=1;fillColor=#ffcd28;gradientColor=#ffa500;strokeColor=#FF6666;fontSize=16;" parent="1" vertex="1">
          <mxGeometry x="1588" y="1892" width="120" height="60" as="geometry" />
        </mxCell>
        <mxCell id="NXJJWlPIzXNzET5rZxup-362" value="become owner" style="rounded=1;whiteSpace=wrap;html=1;fillColor=#fff2cc;gradientColor=#ffd966;strokeColor=#FF6666;fontSize=16;" parent="1" vertex="1">
          <mxGeometry x="-1906" y="1828" width="120" height="60" as="geometry" />
        </mxCell>
        <mxCell id="NXJJWlPIzXNzET5rZxup-363" value="edit profile" style="rounded=1;whiteSpace=wrap;html=1;fillColor=#fff2cc;gradientColor=#ffd966;strokeColor=#FF6666;fontSize=16;" parent="1" vertex="1">
          <mxGeometry x="-887" y="1897" width="120" height="60" as="geometry" />
        </mxCell>
        <mxCell id="NXJJWlPIzXNzET5rZxup-382" style="edgeStyle=none;curved=1;rounded=0;orthogonalLoop=1;jettySize=auto;html=1;fontSize=12;startSize=8;endSize=8;" parent="1" source="NXJJWlPIzXNzET5rZxup-366" target="NXJJWlPIzXNzET5rZxup-378" edge="1">
          <mxGeometry relative="1" as="geometry" />
        </mxCell>
        <mxCell id="NXJJWlPIzXNzET5rZxup-366" value="get by status&lt;br&gt;(pagination &amp;amp; search)" style="rounded=1;whiteSpace=wrap;html=1;fontSize=16;fillColor=#f8cecc;strokeColor=#0AFF23;" parent="1" vertex="1">
          <mxGeometry x="-1108" y="352" width="120" height="60" as="geometry" />
        </mxCell>
        <mxCell id="NXJJWlPIzXNzET5rZxup-385" style="edgeStyle=none;curved=1;rounded=0;orthogonalLoop=1;jettySize=auto;html=1;fontSize=12;startSize=8;endSize=8;" parent="1" source="NXJJWlPIzXNzET5rZxup-376" target="NXJJWlPIzXNzET5rZxup-380" edge="1">
          <mxGeometry relative="1" as="geometry" />
        </mxCell>
        <mxCell id="NXJJWlPIzXNzET5rZxup-376" value="get by status&lt;br&gt;(pagination &amp;amp; search)" style="rounded=1;whiteSpace=wrap;html=1;fontSize=16;fillColor=#dae8fc;strokeColor=#0AFF23;" parent="1" vertex="1">
          <mxGeometry x="-1171" y="258" width="120" height="60" as="geometry" />
        </mxCell>
        <mxCell id="NXJJWlPIzXNzET5rZxup-377" value="get by status&lt;br&gt;(pagination &amp;amp; search)" style="rounded=1;whiteSpace=wrap;html=1;fontSize=16;fillColor=#d5e8d4;strokeColor=#0AFF23;" parent="1" vertex="1">
          <mxGeometry x="-929" y="262" width="120" height="60" as="geometry" />
        </mxCell>
        <mxCell id="NXJJWlPIzXNzET5rZxup-387" style="edgeStyle=none;curved=1;rounded=0;orthogonalLoop=1;jettySize=auto;html=1;entryX=0.5;entryY=0;entryDx=0;entryDy=0;fontSize=12;startSize=8;endSize=8;" parent="1" source="NXJJWlPIzXNzET5rZxup-378" target="NXJJWlPIzXNzET5rZxup-350" edge="1">
          <mxGeometry relative="1" as="geometry" />
        </mxCell>
        <mxCell id="NXJJWlPIzXNzET5rZxup-378" value="get by status&lt;br&gt;(pagination &amp;amp; search)" style="rounded=1;whiteSpace=wrap;html=1;fontSize=16;fillColor=#f8cecc;strokeColor=#66FF66;" parent="1" vertex="1">
          <mxGeometry x="-776" y="1566" width="120" height="60" as="geometry" />
        </mxCell>
        <mxCell id="NXJJWlPIzXNzET5rZxup-386" style="edgeStyle=none;curved=1;rounded=0;orthogonalLoop=1;jettySize=auto;html=1;fontSize=12;startSize=8;endSize=8;" parent="1" source="NXJJWlPIzXNzET5rZxup-380" target="NXJJWlPIzXNzET5rZxup-350" edge="1">
          <mxGeometry relative="1" as="geometry" />
        </mxCell>
        <mxCell id="NXJJWlPIzXNzET5rZxup-380" value="get by status&lt;br&gt;(pagination &amp;amp; search)" style="rounded=1;whiteSpace=wrap;html=1;fontSize=16;fillColor=#dae8fc;strokeColor=#66FF66;" parent="1" vertex="1">
          <mxGeometry x="-933" y="1533" width="120" height="60" as="geometry" />
        </mxCell>
        <mxCell id="NXJJWlPIzXNzET5rZxup-388" style="edgeStyle=none;curved=1;rounded=0;orthogonalLoop=1;jettySize=auto;html=1;entryX=0.75;entryY=0;entryDx=0;entryDy=0;fontSize=12;startSize=8;endSize=8;" parent="1" source="NXJJWlPIzXNzET5rZxup-381" target="NXJJWlPIzXNzET5rZxup-350" edge="1">
          <mxGeometry relative="1" as="geometry" />
        </mxCell>
        <mxCell id="NXJJWlPIzXNzET5rZxup-381" value="get by status&lt;br&gt;(pagination &amp;amp; search)" style="rounded=1;whiteSpace=wrap;html=1;fontSize=16;fillColor=#d5e8d4;strokeColor=#66FF66;" parent="1" vertex="1">
          <mxGeometry x="-691" y="1484" width="120" height="60" as="geometry" />
        </mxCell>
        <mxCell id="NXJJWlPIzXNzET5rZxup-384" style="edgeStyle=none;curved=1;rounded=0;orthogonalLoop=1;jettySize=auto;html=1;entryX=0.614;entryY=0.105;entryDx=0;entryDy=0;entryPerimeter=0;fontSize=12;startSize=8;endSize=8;" parent="1" source="NXJJWlPIzXNzET5rZxup-377" target="NXJJWlPIzXNzET5rZxup-381" edge="1">
          <mxGeometry relative="1" as="geometry" />
        </mxCell>
        <mxCell id="NXJJWlPIzXNzET5rZxup-393" style="edgeStyle=none;curved=1;rounded=0;orthogonalLoop=1;jettySize=auto;html=1;entryX=0.5;entryY=0;entryDx=0;entryDy=0;fontSize=12;startSize=8;endSize=8;" parent="1" source="NXJJWlPIzXNzET5rZxup-390" target="NXJJWlPIzXNzET5rZxup-189" edge="1">
          <mxGeometry relative="1" as="geometry" />
        </mxCell>
        <mxCell id="NXJJWlPIzXNzET5rZxup-390" value="stats" style="rounded=1;whiteSpace=wrap;html=1;fontSize=16;strokeColor=#0AFF23;" parent="1" vertex="1">
          <mxGeometry x="-648" y="904" width="120" height="60" as="geometry" />
        </mxCell>
        <mxCell id="NXJJWlPIzXNzET5rZxup-392" style="edgeStyle=none;curved=1;rounded=0;orthogonalLoop=1;jettySize=auto;html=1;entryX=0.5;entryY=0;entryDx=0;entryDy=0;fontSize=12;startSize=8;endSize=8;" parent="1" source="NXJJWlPIzXNzET5rZxup-391" target="NXJJWlPIzXNzET5rZxup-390" edge="1">
          <mxGeometry relative="1" as="geometry" />
        </mxCell>
        <mxCell id="NXJJWlPIzXNzET5rZxup-391" value="stats" style="rounded=1;whiteSpace=wrap;html=1;fontSize=16;strokeColor=#0AFF23;" parent="1" vertex="1">
          <mxGeometry x="-700" y="420" width="120" height="60" as="geometry" />
        </mxCell>
        <mxCell id="NXJJWlPIzXNzET5rZxup-399" style="edgeStyle=none;curved=1;rounded=0;orthogonalLoop=1;jettySize=auto;html=1;exitX=1;exitY=1;exitDx=0;exitDy=0;fontSize=12;startSize=8;endSize=8;" parent="1" source="NXJJWlPIzXNzET5rZxup-394" target="NXJJWlPIzXNzET5rZxup-398" edge="1">
          <mxGeometry relative="1" as="geometry" />
        </mxCell>
        <mxCell id="NXJJWlPIzXNzET5rZxup-394" value="find" style="rounded=1;whiteSpace=wrap;html=1;fillColor=#e1d5e7;strokeColor=#0AFF23;fontSize=16;labelBorderColor=none;" parent="1" vertex="1">
          <mxGeometry x="-1368" y="1238" width="120" height="60" as="geometry" />
        </mxCell>
        <mxCell id="NXJJWlPIzXNzET5rZxup-398" value="view user profile" style="rounded=1;whiteSpace=wrap;html=1;fillColor=#fff2cc;gradientColor=#ffd966;strokeColor=#FF6666;fontSize=16;" parent="1" vertex="1">
          <mxGeometry x="-1051" y="1822" width="120" height="60" as="geometry" />
        </mxCell>
        <mxCell id="NXJJWlPIzXNzET5rZxup-406" value="edit status" style="rounded=1;whiteSpace=wrap;html=1;fontSize=16;fillColor=#eeeeee;strokeColor=#0AFF23;" parent="1" vertex="1">
          <mxGeometry x="-116" y="1667" width="120" height="60" as="geometry" />
        </mxCell>
        <mxCell id="NXJJWlPIzXNzET5rZxup-407" style="edgeStyle=none;curved=1;rounded=0;orthogonalLoop=1;jettySize=auto;html=1;entryX=0.658;entryY=0.983;entryDx=0;entryDy=0;entryPerimeter=0;fontSize=12;startSize=8;endSize=8;" parent="1" source="NXJJWlPIzXNzET5rZxup-406" target="NXJJWlPIzXNzET5rZxup-350" edge="1">
          <mxGeometry relative="1" as="geometry" />
        </mxCell>
        <mxCell id="QpYXfKqDC9RKlLKm9F4h-11" value="product ratings" style="rounded=1;whiteSpace=wrap;html=1;fillColor=#d5e8d4;gradientColor=#97d077;strokeColor=#66FF66;fontSize=16;" parent="1" vertex="1">
          <mxGeometry x="60" y="1944" width="120" height="60" as="geometry" />
        </mxCell>
        <mxCell id="QpYXfKqDC9RKlLKm9F4h-12" value="bussiness ratings" style="rounded=1;whiteSpace=wrap;html=1;fillColor=#d5e8d4;gradientColor=#97d077;strokeColor=#66FF66;fontSize=16;" parent="1" vertex="1">
          <mxGeometry x="286" y="1897" width="120" height="60" as="geometry" />
        </mxCell>
        <mxCell id="QpYXfKqDC9RKlLKm9F4h-14" style="edgeStyle=none;curved=1;rounded=0;orthogonalLoop=1;jettySize=auto;html=1;entryX=0.65;entryY=0.033;entryDx=0;entryDy=0;entryPerimeter=0;fontSize=12;startSize=8;endSize=8;" parent="1" source="NXJJWlPIzXNzET5rZxup-172" target="QpYXfKqDC9RKlLKm9F4h-11" edge="1">
          <mxGeometry relative="1" as="geometry" />
        </mxCell>
        <mxCell id="QpYXfKqDC9RKlLKm9F4h-18" style="edgeStyle=none;curved=1;rounded=0;orthogonalLoop=1;jettySize=auto;html=1;exitX=0;exitY=1;exitDx=0;exitDy=0;entryX=0.75;entryY=0;entryDx=0;entryDy=0;fontSize=12;startSize=8;endSize=8;" parent="1" source="QpYXfKqDC9RKlLKm9F4h-16" target="NXJJWlPIzXNzET5rZxup-335" edge="1">
          <mxGeometry relative="1" as="geometry" />
        </mxCell>
        <mxCell id="QpYXfKqDC9RKlLKm9F4h-16" value="" style="rounded=0;whiteSpace=wrap;html=1;fillColor=none;" parent="1" vertex="1">
          <mxGeometry x="1737.5" y="67" width="155" height="310" as="geometry" />
        </mxCell>
        <mxCell id="QpYXfKqDC9RKlLKm9F4h-17" value="polymorph to limited" style="text;html=1;align=center;verticalAlign=middle;whiteSpace=wrap;rounded=0;fontSize=16;" parent="1" vertex="1">
          <mxGeometry x="1746" y="22" width="144" height="30" as="geometry" />
        </mxCell>
        <mxCell id="QpYXfKqDC9RKlLKm9F4h-21" style="edgeStyle=none;curved=1;rounded=0;orthogonalLoop=1;jettySize=auto;html=1;exitX=0.25;exitY=1;exitDx=0;exitDy=0;entryX=0.75;entryY=0;entryDx=0;entryDy=0;fontSize=12;startSize=8;endSize=8;" parent="1" source="QpYXfKqDC9RKlLKm9F4h-19" target="NXJJWlPIzXNzET5rZxup-336" edge="1">
          <mxGeometry relative="1" as="geometry" />
        </mxCell>
        <mxCell id="QpYXfKqDC9RKlLKm9F4h-19" value="" style="rounded=0;whiteSpace=wrap;html=1;fillColor=none;" parent="1" vertex="1">
          <mxGeometry x="1927" y="64" width="155" height="413" as="geometry" />
        </mxCell>
        <mxCell id="QpYXfKqDC9RKlLKm9F4h-20" value="polymorph to limited" style="text;html=1;align=center;verticalAlign=middle;whiteSpace=wrap;rounded=0;fontSize=16;" parent="1" vertex="1">
          <mxGeometry x="1927" y="22" width="144" height="30" as="geometry" />
        </mxCell>
        <mxCell id="QpYXfKqDC9RKlLKm9F4h-22" value="" style="edgeStyle=none;curved=1;rounded=0;orthogonalLoop=1;jettySize=auto;html=1;exitX=0;exitY=0.5;exitDx=0;exitDy=0;fontSize=16;startSize=8;endSize=8;" parent="1" source="NXJJWlPIzXNzET5rZxup-70" target="NXJJWlPIzXNzET5rZxup-49" edge="1">
          <mxGeometry relative="1" as="geometry">
            <mxPoint x="1942" y="222" as="sourcePoint" />
            <mxPoint x="2099" y="907" as="targetPoint" />
          </mxGeometry>
        </mxCell>
        <mxCell id="NXJJWlPIzXNzET5rZxup-49" value="Get most discount by bussness" style="rounded=1;whiteSpace=wrap;html=1;fillColor=#dae8fc;strokeColor=#0AFF23;fontSize=16;" parent="1" vertex="1">
          <mxGeometry x="1951" y="383" width="120" height="60" as="geometry" />
        </mxCell>
        <mxCell id="QpYXfKqDC9RKlLKm9F4h-23" style="edgeStyle=none;curved=1;rounded=0;orthogonalLoop=1;jettySize=auto;html=1;exitX=1;exitY=1;exitDx=0;exitDy=0;entryX=0.667;entryY=0.173;entryDx=0;entryDy=0;entryPerimeter=0;fontSize=12;startSize=8;endSize=8;" parent="1" source="NXJJWlPIzXNzET5rZxup-92" target="NXJJWlPIzXNzET5rZxup-362" edge="1">
          <mxGeometry relative="1" as="geometry" />
        </mxCell>
        <mxCell id="dOirgz0_V3Rg2CDJSkMz-2" value="owner dashboard" style="rounded=1;whiteSpace=wrap;html=1;fontSize=16;strokeColor=#FF6666;" parent="1" vertex="1">
          <mxGeometry x="-1257" y="2423" width="120" height="60" as="geometry" />
        </mxCell>
        <mxCell id="dOirgz0_V3Rg2CDJSkMz-3" value="admin dashboard" style="rounded=1;whiteSpace=wrap;html=1;fontSize=16;strokeColor=#FF6666;" parent="1" vertex="1">
          <mxGeometry x="-1260" y="2495" width="120" height="60" as="geometry" />
        </mxCell>
        <mxCell id="dOirgz0_V3Rg2CDJSkMz-7" value="brand search" style="rounded=1;whiteSpace=wrap;html=1;fillColor=#ffcd28;gradientColor=#ffa500;strokeColor=#FF6666;fontSize=16;" parent="1" vertex="1">
          <mxGeometry x="-1388" y="2423" width="120" height="60" as="geometry" />
        </mxCell>
        <mxCell id="dOirgz0_V3Rg2CDJSkMz-8" value="bussiness search" style="rounded=1;whiteSpace=wrap;html=1;fillColor=#ffcd28;gradientColor=#ffa500;strokeColor=#FF6666;fontSize=16;" parent="1" vertex="1">
          <mxGeometry x="-1392" y="2354" width="120" height="60" as="geometry" />
        </mxCell>
        <mxCell id="dOirgz0_V3Rg2CDJSkMz-10" value="owner search" style="rounded=1;whiteSpace=wrap;html=1;fillColor=#ffcd28;gradientColor=#ffa500;strokeColor=#FF6666;fontSize=16;" parent="1" vertex="1">
          <mxGeometry x="-1521" y="2486" width="120" height="60" as="geometry" />
        </mxCell>
        <mxCell id="dOirgz0_V3Rg2CDJSkMz-11" value="product search" style="rounded=1;whiteSpace=wrap;html=1;fillColor=#ffcd28;gradientColor=#ffa500;strokeColor=#FF6666;fontSize=16;" parent="1" vertex="1">
          <mxGeometry x="-1388" y="2489" width="120" height="60" as="geometry" />
        </mxCell>
        <mxCell id="dOirgz0_V3Rg2CDJSkMz-12" value="edit profile" style="rounded=1;whiteSpace=wrap;html=1;fillColor=#fff2cc;gradientColor=#ffd966;strokeColor=#FF6666;fontSize=16;" parent="1" vertex="1">
          <mxGeometry x="-1125" y="2426" width="120" height="60" as="geometry" />
        </mxCell>
        <mxCell id="dOirgz0_V3Rg2CDJSkMz-13" value="view user profile" style="rounded=1;whiteSpace=wrap;html=1;fillColor=#fff2cc;gradientColor=#ffd966;strokeColor=#FF6666;fontSize=16;" parent="1" vertex="1">
          <mxGeometry x="-1125" y="2495" width="120" height="60" as="geometry" />
        </mxCell>
      </root>
    </mxGraphModel>
  </diagram>
</mxfile>
